#define object_width 30
#define object_height 30
static char object_bits[] = {
   0x00, 0x00, 0x00, 0x00, 0x00, 0x00, 0x00, 0x00, 0x00, 0xf0, 0x07, 0x00,
   0x00, 0xfc, 0x1f, 0x00, 0x00, 0x0f, 0x78, 0x00, 0x80, 0x03, 0xe0, 0x00,
   0xc0, 0x00, 0x80, 0x01, 0x60, 0xf0, 0x01, 0x03, 0x60, 0xfc, 0x00, 0x03,
   0x30, 0x0e, 0x00, 0x06, 0x30, 0x07, 0x00, 0x06, 0x18, 0x01, 0x00, 0x0c,
   0x18, 0x00, 0x00, 0x0c, 0x18, 0x00, 0x00, 0x0c, 0x18, 0x00, 0x00, 0x0c,
   0x18, 0x01, 0x00, 0x0c, 0x18, 0x01, 0x00, 0x0c, 0x18, 0x03, 0x00, 0x0c,
   0x30, 0x07, 0x00, 0x06, 0x30, 0x0e, 0x00, 0x06, 0x60, 0x1c, 0x00, 0x03,
   0x60, 0x78, 0x00, 0x03, 0xc0, 0xe0, 0x81, 0x01, 0x80, 0x03, 0xe0, 0x00,
   0x00, 0x0f, 0x78, 0x00, 0x00, 0xfc, 0x1f, 0x00, 0x00, 0xf0, 0x07, 0x00,
   0x00, 0x00, 0x00, 0x00, 0x00, 0x00, 0x00, 0x00, 0x00, 0x00, 0x00, 0x00};
