#define goal_width 30
#define goal_height 30
static char goal_bits[] = {
   0x41, 0x10, 0x04, 0x01, 0xa2, 0x28, 0x8a, 0x22, 0x14, 0x45, 0x51, 0x14,
   0x08, 0x82, 0x20, 0x08, 0x14, 0x45, 0x51, 0x14, 0xa2, 0x28, 0x8a, 0x22,
   0x41, 0x10, 0x04, 0x01, 0xa2, 0x28, 0x8a, 0x22, 0x14, 0x45, 0x51, 0x14,
   0x08, 0x82, 0x20, 0x08, 0x14, 0x45, 0x51, 0x14, 0xa2, 0x28, 0x8a, 0x22,
   0x41, 0x10, 0x04, 0x01, 0xa2, 0x28, 0x8a, 0x22, 0x14, 0x45, 0x51, 0x14,
   0x08, 0x82, 0x20, 0x08, 0x14, 0x45, 0x51, 0x14, 0xa2, 0x28, 0x8a, 0x22,
   0x41, 0x10, 0x04, 0x01, 0xa2, 0x28, 0x8a, 0x22, 0x14, 0x45, 0x51, 0x14,
   0x08, 0x82, 0x20, 0x08, 0x14, 0x45, 0x51, 0x14, 0xa2, 0x28, 0x8a, 0x22,
   0x41, 0x10, 0x04, 0x01, 0xa2, 0x28, 0x8a, 0x22, 0x14, 0x45, 0x51, 0x14,
   0x08, 0x82, 0x20, 0x08, 0x14, 0x45, 0x51, 0x14, 0xa2, 0x28, 0x8a, 0x22};
