/* XPM */
static char *allq[] = {
/* width height ncolors chars_per_pixel */
"36 36 33 2",
/* colors */
"`` c #000000",
"`f c #3A3A35",
"`j c #878787",
"`l c #7F7F7F",
"`m c #7D7D7D",
"`n c #42434D",
"`p c #797979",
"`q c #777777",
"`w c #848480",
"`z c #4B4B4B",
"ac c #343331",
"ak c #3B3B3B",
"am c #313131",
"ar c #514E50",
"as c #191919",
"ay c #B8B8B8",
"az c #B6B6B6",
"bo c #B3B3AF",
"bq c #8A8A8A",
"bs c #868686",
"bv c #7A7A7A",
"cb c #BDBCB8",
"cc c #8F8FA2",
"cp c #404040",
"cr c #3C3C3C",
"cu c #000101",
"dd c #181818",
"dg c #141414",
"dh c #252428",
"di c #373733",
"dk c #BFBFBF",
"dn c #727270",
"do c #B7B7B7",
/* pixels */
"amamamambvdkdkdkazbs`l`l`l`l`l`l`l`l`l`l`l`l`l`l`l`l`qcramamamdg````````",
"amamamambvdkdkdkazbs`l`l`l`l`l`l`l`l`l`l`l`l`l`l`l`l`qcramamamdg````````",
"amamamambvdkdkdkazbs`l`l`l`l`l`l`l`l`l`l`l`l`l`l`l`l`qcramamamdg````````",
"amamamambvdkdkdkazbs`l`l`l`l`l`l`l`l`l`l`l`l`l`l`l`l`qcramamamdg````````",
"`p`p`p`pccdkdkdkazbs`l`l`l`l`l`l`l`l`l`l`l`l`l`l`l`l`qcramamdicpcpcpcpar",
"dkdkdkdkdkdkdkdkazbs`l`l`l`l`l`l`l`l`l`l`l`l`l`l`l`l`qcramakar`mbsbqbocb",
"dkdkdkdkdkdkdkdkazbs`l`l`l`l`l`l`l`l`l`l`l`l`l`l`l`l`qcrdiarbsbqbodkdkdk",
"dkdkdkdkdkdkdkdkazbs`l`l`l`l`l`l`l`l`l`l`l`l`l`l`l`l`qakdnbqbodkdkdkdkdk",
"dodododoaydododobobs`l`l`l`l`l`l`l`l`l`l`l`l`l`l`l`l`pdnccbodoazazazdodo",
"`j`j`j`j`j`j`jbsbs`l`l`l`l`l`l`l`l`l`l`l`l`l`l`l`l`l`l`w`j`j`j`j`j`j`j`j",
"`l`l`l`l`l`l`l`l`l`l`l`l`l`l`l`l`l`l`l`l`l`l`l`l`l`l`l`l`l`l`l`l`l`l`l`l",
"`l`l`l`l`l`l`l`l`l`l`l`l`l`l`l`l`l`l`l`l`l`l`l`l`l`l`l`l`l`l`l`l`l`l`l`l",
"`l`l`l`l`l`l`l`l`l`l`l`l`l`l`l`l`l`l`l`l`l`l`l`l`l`l`l`l`l`l`l`l`l`l`l`l",
"`l`l`l`l`l`l`l`l`l`l`l`l`l`l`l`l`l`l`l`l`l`l`l`l`l`l`l`l`l`l`l`l`l`l`l`l",
"`l`l`l`l`l`l`l`l`l`l`l`l`l`l`l`l`l`l`l`l`l`l`l`l`l`l`l`l`l`l`l`l`l`l`l`l",
"`l`l`l`l`l`l`l`l`l`l`l`l`l`l`l`l`l`l`l`l`l`l`l`l`l`l`l`l`l`l`l`l`l`l`l`l",
"`l`l`l`l`l`l`l`l`l`l`l`l`l`l`l`l`l`l`l`l`l`l`l`l`l`l`l`l`l`l`l`l`l`l`l`l",
"`l`l`l`l`l`l`l`l`l`l`l`l`l`l`l`l`l`l`l`l`l`l`l`l`l`l`l`l`l`l`l`l`l`l`l`l",
"`l`l`l`l`l`l`l`l`l`l`l`l`l`l`l`l`l`l`l`l`l`l`l`l`l`l`l`l`l`l`l`l`l`l`l`l",
"`l`l`l`l`l`l`l`l`l`l`l`l`l`l`l`l`l`l`l`l`l`l`l`l`l`l`l`l`l`l`l`l`l`l`l`l",
"`l`l`l`l`l`l`l`l`l`l`l`l`l`l`l`l`l`l`l`l`l`l`l`l`l`l`l`l`l`l`l`l`l`l`l`l",
"`l`l`l`l`l`l`l`l`l`l`l`l`l`l`l`l`l`l`l`l`l`l`l`l`l`l`l`l`l`l`l`l`l`l`l`l",
"`l`l`l`l`l`l`l`l`l`l`l`l`l`l`l`l`l`l`l`l`l`l`l`l`l`l`l`l`l`l`l`l`l`l`l`l",
"`l`l`l`l`l`l`l`l`l`l`l`l`l`l`l`l`l`l`l`l`l`l`l`l`l`l`l`l`l`l`l`l`l`l`l`l",
"`l`l`l`l`l`l`l`l`l`l`l`l`l`l`l`l`l`l`l`l`l`l`l`l`l`l`l`l`l`l`l`l`l`l`l`l",
"`l`l`l`l`l`l`l`l`l`l`l`l`l`l`l`l`l`l`l`l`l`l`l`l`l`l`l`l`l`l`l`l`l`l`l`l",
"`p`p`p`p`p`p`p`pbv`l`l`l`l`l`l`l`l`l`l`l`l`l`l`l`l`l`lbv`p`p`p`p`p`p`p`p",
"cpcpcpcpcpcpcpcpdn`w`l`l`l`l`l`l`l`l`l`l`l`l`l`l`l`l`p`zcpcpcpcpcpcpcpcp",
"amamamamamamacarccbq`l`l`l`l`l`l`l`l`l`l`l`l`l`l`l`l`qcramamamamamamamam",
"amamamamam`farbqazbs`l`l`l`l`l`l`l`l`l`l`l`l`l`l`l`l`qcramamamamamamamam",
"amamamamacarbsboazbs`l`l`l`l`l`l`l`l`l`l`l`l`l`l`l`l`qcramamamamamamamam",
"ddddddascp`lbqayazbs`l`l`l`l`l`l`l`l`l`l`l`l`l`l`l`l`qcramamamdhdddddddd",
"````````cp`wbodkazbs`l`l`l`l`l`l`l`l`l`l`l`l`l`l`l`l`qcramamamas````````",
"``````cucpbqaydkazbs`l`l`l`l`l`l`l`l`l`l`l`l`l`l`l`l`qcramamamas````````",
"`````````nbodkdkazbs`l`l`l`l`l`l`l`l`l`l`l`l`l`l`l`l`qcramamamas````````",
"````````araydkdkazbs`l`l`l`l`l`l`l`l`l`l`l`l`l`l`l`l`qcramamamas````````"
};
