/* XPM */
static char *allq[] = {
/* width height ncolors chars_per_pixel */
"36 36 26 2",
/* colors */
"`` c #000000",
"`e c #3E3E39",
"`f c #3A3A35",
"`j c #878787",
"`l c #7F7F7F",
"`p c #797979",
"`q c #777777",
"`w c #848480",
"ac c #343331",
"am c #313131",
"ar c #514E50",
"ay c #B8B8B8",
"az c #B6B6B6",
"bo c #B3B3AF",
"bq c #8A8A8A",
"bs c #868686",
"bv c #7A7A7A",
"cb c #BDBCB8",
"cc c #8F8FA2",
"cp c #404040",
"cr c #3C3C3C",
"dd c #181818",
"dg c #141414",
"dk c #BFBFBF",
"dn c #727270",
"do c #B7B7B7",
/* pixels */
"amamamambvdkdkdkazbs`l`l`l`l`l`l`l`l`l`l`l`l`l`l`l`l`qcramamamdg````````",
"amamamambvdkdkdkazbs`l`l`l`l`l`l`l`l`l`l`l`l`l`l`l`l`qcramamamdg````````",
"amamamambvdkdkdkazbs`l`l`l`l`l`l`l`l`l`l`l`l`l`l`l`l`qcramamamdg````````",
"amamamambvdkdkdkazbs`l`l`l`l`l`l`l`l`l`l`l`l`l`l`l`l`qcramamamdg````````",
"`p`p`p`pccdkdkdkazbs`l`l`l`l`l`l`l`l`l`l`l`l`l`l`l`l`qcramamamdg````````",
"dkdkdkdkdkdkdkdkazbs`l`l`l`l`l`l`l`l`l`l`l`l`l`l`l`l`qcramamamdg````````",
"dkdkdkdkdkdkdkdkazbs`l`l`l`l`l`l`l`l`l`l`l`l`l`l`l`l`qcramamamdg````````",
"dkdkdkdkdkdkdkdkazbs`l`l`l`l`l`l`l`l`l`l`l`l`l`l`l`l`qcramamamdg````````",
"dodododoaydododobobs`l`l`l`l`l`l`l`l`l`l`l`l`l`l`l`l`qcramamamdg````````",
"`j`j`j`j`j`j`jbsbs`l`l`l`l`l`l`l`l`l`l`l`l`l`l`l`l`l`qcramamamdg````````",
"`l`l`l`l`l`l`l`l`l`l`l`l`l`l`l`l`l`l`l`l`l`l`l`l`l`l`qcramamamdg````````",
"`l`l`l`l`l`l`l`l`l`l`l`l`l`l`l`l`l`l`l`l`l`l`l`l`l`l`qcramamamdg````````",
"`l`l`l`l`l`l`l`l`l`l`l`l`l`l`l`l`l`l`l`l`l`l`l`l`l`l`qcramamamdg````````",
"`l`l`l`l`l`l`l`l`l`l`l`l`l`l`l`l`l`l`l`l`l`l`l`l`l`l`qcramamamdg````````",
"`l`l`l`l`l`l`l`l`l`l`l`l`l`l`l`l`l`l`l`l`l`l`l`l`l`l`qcramamamdg````````",
"`l`l`l`l`l`l`l`l`l`l`l`l`l`l`l`l`l`l`l`l`l`l`l`l`l`l`qcramamamdg````````",
"`l`l`l`l`l`l`l`l`l`l`l`l`l`l`l`l`l`l`l`l`l`l`l`l`l`l`qcramamamdg````````",
"`l`l`l`l`l`l`l`l`l`l`l`l`l`l`l`l`l`l`l`l`l`l`l`l`l`l`qcramamamdg````````",
"`l`l`l`l`l`l`l`l`l`l`l`l`l`l`l`l`l`l`l`l`l`l`l`l`l`l`qcramamamdg````````",
"`l`l`l`l`l`l`l`l`l`l`l`l`l`l`l`l`l`l`l`l`l`l`l`l`l`l`qcramamamdg````````",
"`l`l`l`l`l`l`l`l`l`l`l`l`l`l`l`l`l`l`l`l`l`l`l`l`l`l`qcramamamdg````````",
"`l`l`l`l`l`l`l`l`l`l`l`l`l`l`l`l`l`l`l`l`l`l`l`l`l`l`qcramamamdg````````",
"`l`l`l`l`l`l`l`l`l`l`l`l`l`l`l`l`l`l`l`l`l`l`l`l`l`l`qcramamamdg````````",
"`l`l`l`l`l`l`l`l`l`l`l`l`l`l`l`l`l`l`l`l`l`l`l`l`l`l`qcramamamdg````````",
"`l`l`l`l`l`l`l`l`l`l`l`l`l`l`l`l`l`l`l`l`l`l`l`l`l`l`qcramamamdg````````",
"`l`l`l`l`l`l`l`l`l`l`l`l`l`l`l`l`l`l`l`l`l`l`l`l`l`l`qcramamamdg````````",
"`p`p`p`p`p`p`p`pbv`l`l`l`l`l`l`l`l`l`l`l`l`l`l`l`l`l`qcramamamdg````````",
"cpcpcpcpcpcpcpcpdn`w`l`l`l`l`l`l`l`l`l`l`l`l`l`l`l`l`qcramamamdg````````",
"amamamamamamacarccbq`l`l`l`l`l`l`l`l`l`l`l`l`l`l`l`l`qcramamamdg````````",
"amamamamam`farbqazbs`l`l`l`l`l`l`l`l`l`l`l`l`l`l`l`l`qcramamamdg````````",
"amamamamacarbsboazbs`l`l`l`l`l`l`l`l`l`l`l`l`l`l`l`l`qcramamamdg````````",
"ddddddddcr`lbqayazbs`l`l`l`l`l`l`l`l`l`l`l`l`l`l`l`l`qcramamamdg````````",
"````````am`lbodkazbs`l`l`l`l`l`l`l`l`l`l`l`l`l`l`l`l`qcramamamdg````````",
"````````ambqaydkazbs`l`l`l`l`l`l`l`l`l`l`l`l`l`l`l`l`qcramamamdg````````",
"````````acccdkdkazbs`l`l`l`l`l`l`l`l`l`l`l`l`l`l`l`l`qcramamamdg````````",
"`````````ecbdkdkazbs`l`l`l`l`l`l`l`l`l`l`l`l`l`l`l`l`qcramamamdg````````"
};
