/* XPM */
static chcp *allq[] = {
/* width height ncolors chcps_per_pixel */
"36 36 25 2",
/* colors */
"`` c #000000",
"`j c #878787",
"`l c #7F7F7F",
"`p c #797979",
"`r c #757575",
"`w c #848480",
"am c #4B4B4B",
"ac c #343331",
"am c #313131",
"cp c #514E50",
"as c #191919",
"ay c #B8B8B8",
"az c #B6B6B6",
"ba c #030303",
"bc c #2E2E2D",
"bs c #868686",
"bv c #7A7A7A",
"cp c #404040",
"cu c #000101",
"de c #171617",
"dg c #141414",
"dh c #252428",
"dk c #BFBFBF",
"dn c #727270",
"do c #B7B7B7",
/* pixels */
"amamamamamamacamamamamamamamamamamamamamamamamamamamamamamamamamamamamam",
"amamamamamamamamamamamamamamamamamamamamamamamamamamamamamamamamamamamam",
"amamamamamamamamamamamamamamamamamamamamamamamamamamamamamamamamamamamam",
"amamamamamamamamamamamamamamamamamamamamamamamamamamamamamamamamamamamam",
"`p`p`p`p`p`p`p`p`p`p`p`p`p`p`p`p`p`p`p`p`p`p`p`p`p`p`p`p`p`pdncpamamamam",
"dkdkdkdkdkdkdkdkdkdkdkdkdkdkdkdkdkdkdkdkdkdkdkdkdkdkdkdkdkay`wbcasbcamam",
"dkdkdkdkdkdkdkdkdkdkdkdkdkdkdkdkdkdkdkdkdkdkdkdkdkdkdkdkay`wcpdhbaasbcam",
"dkdkdkdkdkdkdkdkdkdkdkdkdkdkdkdkdkdkdkdkdkdkdkdkdkdkdkay`wcpamdh``baasbc",
"dodododododododododododododododododododododododododoaz`wcpamamdhcu``bade",
"`j`j`j`j`j`j`j`j`j`j`j`j`j`j`j`j`j`j`j`j`j`j`j`j`jbs`wcpamamamdh``````cu",
"`l`l`l`l`l`l`l`l`l`l`l`l`l`l`l`l`l`l`l`l`l`l`l`l`l`l`pcpamamamdhcu``````",
"`l`l`l`l`l`l`l`l`l`l`l`l`l`l`l`l`l`l`l`l`l`l`l`l`l`lbvcpamamamdh````````",
"`l`l`l`l`l`l`l`l`l`l`l`l`l`l`l`l`l`l`l`l`l`l`l`l`l`l`pcpamamamdhcu``````",
"`l`l`l`l`l`l`l`l`l`l`l`l`l`l`l`l`l`l`l`l`l`l`l`l`l`lbvcpamamamdh````````",
"`l`l`l`l`l`l`l`l`l`l`l`l`l`l`l`l`l`l`l`l`l`l`l`l`l`l`pcpamamamdhcu``````",
"`l`l`l`l`l`l`l`l`l`l`l`l`l`l`l`l`l`l`l`l`l`l`l`l`l`lbvcpamamamdh````````",
"`l`l`l`l`l`l`l`l`l`l`l`l`l`l`l`l`l`l`l`l`l`l`l`l`l`l`pcpamamamdhcu``````",
"`l`l`l`l`l`l`l`l`l`l`l`l`l`l`l`l`l`l`l`l`l`l`l`l`l`lbvcpamamamdh````````",
"`l`l`l`l`l`l`l`l`l`l`l`l`l`l`l`l`l`l`l`l`l`l`l`l`l`l`pcpamamamdhcu``````",
"`l`l`l`l`l`l`l`l`l`l`l`l`l`l`l`l`l`l`l`l`l`l`l`l`l`lbvcpamamamdh````````",
"`l`l`l`l`l`l`l`l`l`l`l`l`l`l`l`l`l`l`l`l`l`l`l`l`l`l`pcpamamamdhcu``````",
"`l`l`l`l`l`l`l`l`l`l`l`l`l`l`l`l`l`l`l`l`l`l`l`l`l`lbvcpamamamdh````````",
"`l`l`l`l`l`l`l`l`l`l`l`l`l`l`l`l`l`l`l`l`l`l`l`l`l`l`pcpamamamdhcu``````",
"`l`l`l`l`l`l`l`l`l`l`l`l`l`l`l`l`l`l`l`l`l`l`l`l`l`lbvcpamamamdh````````",
"`l`l`l`l`l`l`l`l`l`l`l`l`l`l`l`l`l`l`l`l`l`l`l`l`l`l`pcpamamamdhcu``````",
"`l`l`l`l`l`l`l`l`l`l`l`l`l`l`l`l`l`l`l`l`l`l`l`l`l`lbvcpamamamdh````````",
"`p`p`p`p`p`p`p`p`p`p`p`p`p`p`p`p`p`p`p`p`p`p`p`p`p`p`rcpamamamdhcu``````",
"cpcpcpcpcpcpcpcpcpcpcpcpcpcpcpcpcpcpcpcpcpcpcpcpcpcpcpamamamamdh````````",
"amamamamamamamamamamamamamamamamamamamamamamamamamamamamamamamdhcu``````",
"amamamamamamamamamamamamamamamamamamamamamamamamamamamamamamamdh````````",
"amamamamamamamamamamamamamamamamamamamamamamamamamamamamamamamdhcu``````",
"dhdhdhdhdhdhdhdhdhdhdhdhdhdhdhdhdhdhdhdhdhdhdhdhdhdhdhdhdhdhdhdg````````",
"````````````````````````````````````````````````````````````````````````",
"````````````````````````````````````````````````````````````````````````",
"````````````````````````````````````````````````````````````````````````",
"````````````````````````````````````````````````````````````````````````"
};
