/* XPM */
static char *allq[] = {
/* width height ncolors chars_per_pixel */
"36 36 25 2",
/* colors */
"`e c #3E3E39",
"`f c #3A3A35",
"`h c #8F8E5A",
"`v c #493F2F",
"ac c #343331",
"af c #F4F48A",
"ai c #B7AF62",
"ak c #3B3B3B",
"am c #313131",
"av c #F7F78C",
"aw c #99995E",
"bc c #2E2E2D",
"bi c #797952",
"bl c #93935E",
"bm c #393934",
"bn c #A0A16E",
"br c #F6F68A",
"bz c #FFFF8F",
"ca c #878758",
"cd c #3C3C36",
"cg c #FAFB8D",
"cl c #3B352E",
"cm c #9C9C6C",
"cp c #404040",
"di c #373733",
/* pixels */
"bzbzbzbzbzbzbzavblakamacamamamamcdbncgbzbzbzbzcgcgafcaamamamamamamamcdbn",
"bzbzbzbzbzbzcgawbmamamamamamambmawbrbzbzbzbzbzbzbrbl`famamamamamamcdcmbr",
"bzbzbzbzbzavaw`eamamamamamam`fawafbzbzbzbzbzbzbrblbmamamamamamamcdawcgbz",
"bzbzbzbzavcmcdamamamamamam`fblbrbzbzbzbzbzbzafawbmamamamamamamcdcmcgbzbz",
"bzbzbzavawcdamamamamamambmawbrbzbzbzbzbzbzbrawdiamamamamamamcdawcgbzbzbz",
"bzbzavcmcdamamamamamambmblbrbzbzbzbzbzbzafawbmamamamamamam`eawcgbzbzbzbz",
"bzavaw`eamamamamamambmblavbzbzbzbzbzbzbrawbmamamamamamam`fawcgbzbzbzbzbz",
"brbncdamamamamamambmblafbzbzbzbzbzbzavaw`famamamamamamcdawcgbzbzbzbzbzbz",
"blcdamamamamamambmblbrbzbzbzbzbzbzbraw`famamamamamam`fcmavbzbzbzbzbzbzcg",
"acamamamamamambmblafbzbzbzbzbzbzavaw`famamamamamamcdawavbzbzbzbzbzbzafaw",
"amamamamamambmblafbzbzbzbzbzbzavaw`famamamamamam`fawcgbzbzbzbzbzbzaf`h`f",
"amamamamambmblafbzbzbzbzbzbzavaw`famamamamamam`fawavbzbzbzbzbzbzafblbmam",
"amamamambmblafbzbzbzbzbzbzavaw`famamamamamam`fawavbzbzbzbzbzbzafbldiamam",
"amamambmblafbzbzbzbzbzbzavaw`famamamamamam`fawavbzbzbzbzbzbzafblbmamamam",
"amambmblafbzbzbzbzbzbzavawcdamamamamamam`fawavbzbzbzbzbzbzafblbmamamamam",
"amdiblafbzbzbzbzbzbzavaw`famamamamamam`fawavbzbzbzbzbzbzafblbmamamamamam",
"bm`hafbzbzbzbzbzbzavawcdamamamamamam`fawavbzbzbzbzbzbzafblbmamamamamamam",
"awafbzbzbzbzbzbzavawcdamamamamamam`fawbrbzbzbzbzbzbzafblbmamamamamamamdi",
"cgbzbzbzbzbzbzavaw`eamamamamamam`fawavbzbzbzbzbzbzafblbmamamamamamamcdbl",
"bzbzbzbzbzbzcgawcdamamamamamambmawbrbzbzbzbzbzbzbrblbmamamamamamamcdawav",
"bzbzbzbzbzavaw`eamamamamamambmawafbzbzbzbzbzbzbrbl`famamamamamamdiblavbz",
"bzbzbzbzavcmcdamamamamamambmawbrbzbzbzbzbzbzafawbmamamamamamamdi`hafbzbz",
"bzbzbzavawcdamamamamamambmawafbzbzbzbzbzbzbrawdiamamamamamamdi`hafbzbzbz",
"bzbzavcmcdamamamamamambmblbrbzbzbzbzbzbzavaw`famamamamamamdi`hafbzbzbzbz",
"bzavaw`eamamamamamambmblavbzbzbzbzbzbzcgbn`famamamamamamdi`hafbzbzbzbzbz",
"brbncdamamamamamambmblafbzbzbzbzbzbzcgbn`eamamamamamamdi`hafbzbzbzbzbzbz",
"blcdamamamamamambmblbrbzbzbzbzbzbzcgbn`eamamamamamambm`hafbzbzbzbzbzbzbz",
"acamamamamamambmblafbzbzbzbzbzbzcgbn`eamamamamamamcdawafbzbzbzbzbzbzavai",
"amamamamamambmblafbzbzbzbzbzbzcgbn`eacamamamamambmawavbzbzbzbzbzbzavbncd",
"amamamamambmblafbzbzbzbzbzbzcgbn`eamamamamamamdi`hafbzbzbzbzbzbzbrbncdam",
"amamamambmblafbzbzbzbzbzbzcgbn`eacamamamamamdicaafbzbzbzbzbzbzcgbnclacam",
"amamambmblafbzbzbzbzbzbzcgbn`eacamamamamamdicaafbzbzbzbzbzbzbrbncdamamam",
"amambmblafbzbzbzbzbzbzcgbn`eacamamamamamdicaafbzbzbzbzbzbzcgbn`vbcamamam",
"amdiblafbzbzbzbzbzbzbzbn`eacamamamamamdicaafbzbzbzbzbzbzbrbncdamamamamam",
"bm`hafbzbzbzbzbzbzcgbn`ediamamamamamdicaafbzbzbzbzbzbzcgbn`vbcamamamamam",
"`hafbzbzbzbzbzbzbzaicpacamamamamamambiafbzbzbzbzbzbzbzaicdamamamamamamam"
};
