/* XPM */
static char *allq[] = {
/* width height ncolors chars_per_pixel */
"36 36 34 2",
/* colors */
"`` c #000000",
"`f c #3A3A35",
"`j c #878787",
"`l c #7F7F7F",
"`m c #7D7D7D",
"`p c #797979",
"`q c #777777",
"`r c #757575",
"`w c #848480",
"ak c #3B3B3B",
"am c #313131",
"ar c #514E50",
"as c #191919",
"ay c #B8B8B8",
"az c #B6B6B6",
"bc c #2E2E2D",
"bo c #B3B3AF",
"bq c #8A8A8A",
"bs c #868686",
"bv c #7A7A7A",
"cb c #BDBCB8",
"cc c #8F8FA2",
"co c #1D1D21",
"cp c #404040",
"cq c #3E3E3E",
"cr c #3C3C3C",
"cu c #000101",
"dd c #181818",
"de c #171617",
"dg c #141414",
"di c #373733",
"dk c #BFBFBF",
"dn c #727270",
"do c #B7B7B7",
/* pixels */
"amamamambvdkdkdkazbs`l`l`l`l`l`l`l`l`l`l`l`l`l`l`l`l`qcramamamas````````",
"amamamambvdkdkdkazbs`l`l`l`l`l`l`l`l`l`l`l`l`l`l`l`l`qcramamamas````````",
"amamamambvdkdkdkazbs`l`l`l`l`l`l`l`l`l`l`l`l`l`l`l`l`qcramamamas````````",
"amamamambvdkdkdkazbs`l`l`l`l`l`l`l`l`l`l`l`l`l`l`l`l`qcramamamas````````",
"amamamambvdkdkdkazbs`l`l`l`l`l`l`l`l`l`l`l`l`l`l`l`l`qcramamdicpcpcpcpar",
"amamamambvdkdkdkazbs`l`l`l`l`l`l`l`l`l`l`l`l`l`l`l`l`qcramakar`mbsbqbocb",
"amamamambvdkdkdkazbs`l`l`l`l`l`l`l`l`l`l`l`l`l`l`l`l`qcrdiarbsccbocbdkdk",
"amamamambvdkdkdkazbs`l`l`l`l`l`l`l`l`l`l`l`l`l`l`l`l`qakdnbqbocbdkdkdkdk",
"amamamambvdkdkdkazbs`l`l`l`l`l`l`l`l`l`l`l`l`l`l`l`l`pdnccbodoazdodododo",
"amamamambvdkdkdkazbs`l`l`l`l`l`l`l`l`l`l`l`l`l`l`l`l`l`w`j`j`j`j`j`j`j`j",
"amamamambvdkdkdkazbs`l`l`l`l`l`l`l`l`l`l`l`l`l`l`l`l`l`l`l`l`l`l`l`l`l`l",
"amamamambvdkdkdkazbs`l`l`l`l`l`l`l`l`l`l`l`l`l`l`l`l`l`l`l`l`l`l`l`l`l`l",
"amamamambvdkdkdkazbs`l`l`l`l`l`l`l`l`l`l`l`l`l`l`l`l`l`l`l`l`l`l`l`l`l`l",
"amamamambvdkdkdkazbs`l`l`l`l`l`l`l`l`l`l`l`l`l`l`l`l`l`l`l`l`l`l`l`l`l`l",
"amamamambvdkdkdkazbs`l`l`l`l`l`l`l`l`l`l`l`l`l`l`l`l`l`l`l`l`l`l`l`l`l`l",
"amamamambvdkdkdkazbs`l`l`l`l`l`l`l`l`l`l`l`l`l`l`l`l`l`l`l`l`l`l`l`l`l`l",
"amamamambvdkdkdkazbs`l`l`l`l`l`l`l`l`l`l`l`l`l`l`l`l`l`l`l`l`l`l`l`l`l`l",
"amamamambvdkdkdkazbs`l`l`l`l`l`l`l`l`l`l`l`l`l`l`l`l`l`l`l`l`l`l`l`l`l`l",
"amamamambvdkdkdkazbs`l`l`l`l`l`l`l`l`l`l`l`l`l`l`l`l`l`l`l`l`l`l`l`l`l`l",
"amamamambvdkdkdkazbs`l`l`l`l`l`l`l`l`l`l`l`l`l`l`l`l`l`l`l`l`l`l`l`l`l`l",
"amamamambvdkdkdkazbs`l`l`l`l`l`l`l`l`l`l`l`l`l`l`l`l`l`l`l`l`l`l`l`l`l`l",
"amamamambvdkdkdkazbs`l`l`l`l`l`l`l`l`l`l`l`l`l`l`l`l`l`l`l`l`l`l`l`l`l`l",
"amamamambvdkdkdkazbs`l`l`l`l`l`l`l`l`l`l`l`l`l`l`l`l`l`l`l`l`l`l`l`l`l`l",
"amamamambvdkdkdkazbs`l`l`l`l`l`l`l`l`l`l`l`l`l`l`l`l`l`l`l`l`l`l`l`l`l`l",
"amamamambvdkdkdkazbs`l`l`l`l`l`l`l`l`l`l`l`l`l`l`l`l`l`l`l`l`l`l`l`l`l`l",
"amamamambvdkdkdkazbs`l`l`l`l`l`l`l`l`l`l`l`l`l`l`l`l`l`l`l`l`l`l`l`l`l`l",
"amamamambvdkdkdkbo`m`r`r`r`r`r`r`r`r`r`r`r`r`r`r`r`r`r`r`r`r`r`r`r`r`r`r",
"amamamambvdkdkaybvcqakakakakakakakakakakakakakakakakakakakakakakakakakak",
"amamamambvdkay`makamamamamamamamamamamamamamamamamamamamamamamamamamamam",
"amamamambvay`m`famamamamamamamamamamamamamamamamamamamamamamamamamamamam",
"amamamam`r`m`famamamamamamamamamamamamamamamamamamamamamamamamamamamamam",
"amamamamcqcodddddddddddddddddddddddddddddddddddddddddddddddddddddddddddd",
"amamamambcdecu``````````````````````````````````````````````````````````",
"amamamamambcdecu````````````````````````````````````````````````````````",
"amamamamamambcdecu``````````````````````````````````````````````````````",
"amamamamamamambcdg``````````````````````````````````````````````````````"
};
