/* XPM */
static char *allq[] = {
/* width height ncolors chars_per_pixel */
"36 36 41 2",
/* colors */
"`` c #000000",
"`a c #060609",
"`f c #3A3A35",
"`j c #878787",
"`l c #7F7F7F",
"`m c #7D7D7D",
"`o c #ABA989",
"`p c #797979",
"`q c #777777",
"`r c #757575",
"`u c #0B0B10",
"ac c #343331",
"ak c #3B3B3B",
"am c #313131",
"as c #191919",
"ay c #B8B8B8",
"az c #B6B6B6",
"ba c #030303",
"bc c #2E2E2D",
"bo c #B3B3AF",
"bq c #8A8A8A",
"bs c #868686",
"bv c #7A7A7A",
"bz c #FFFF8F",
"cb c #BDBCB8",
"cc c #8F8FA2",
"cj c #ABAEFC",
"co c #1D1D21",
"cp c #404040",
"cq c #3E3E3E",
"cr c #3C3C3C",
"cu c #000101",
"dd c #181818",
"de c #171617",
"df c #9DE4FA",
"dg c #141414",
"dh c #252428",
"di c #373733",
"dk c #BFBFBF",
"dn c #727270",
"do c #B7B7B7",
/* pixels */
"amamamamamamamamamamamamamamamamamamamamamamamamamamamamamamamamamamamam",
"amamamamamamamamamamamamamamamamamamamamamamamamamamamamamamamamamamamam",
"amamamamamamamamamamamamamamamamamamamamamamamamamamamamamamamamamamamam",
"amamamamacamamamamamamamamamamamamamamamamamamamamamamamamamamamamamamam",
"amamamam`rbs`p`p`p`p`p`p`p`p`p`p`p`p`p`p`p`p`p`p`p`p`p`p`p`pdndiamamamam",
"amamambcccdkdkdkdkdkdkdkdkdkdkdkdkdkdkdkdkdkdkdkdkdkdkdkdkbodncocoamamam",
"amamamam`mdkdfdkdkdkdkdkdkdkdkdkdkdkdkdkdkdkdkdkdkdkdkdkazdnbcdd`acoacam",
"amamamambsdkbzdkdkdkdkdkdkdkdkdkdkdkdkdkdkdkdkdkdkdkdkay`ramamascu`adham",
"amamamambvdkcjdkdfdkcbcbazdododododododododododododoaz`rdiamamas`````adh",
"amamamam`ldkdkdkdk`obq`j`j`j`j`j`j`j`j`j`j`j`j`j`j`j`lcqamamamas````cu`u",
"amamamambvdkdkdkdkbq`l`l`l`l`l`l`l`l`l`l`l`l`l`l`l`l`qcramamamas``````ba",
"amamamac`ldkdkdkcb`j`l`l`l`l`l`l`l`l`l`l`l`l`l`l`l`l`qcramamamas``````ba",
"amamamambvdkdkdkcbbs`l`l`l`l`l`l`l`l`l`l`l`l`l`l`l`l`qcramamamas``````ba",
"amamamam`mdkdkdkazbs`l`l`l`l`l`l`l`l`l`l`l`l`l`l`l`l`qcramamamas``````ba",
"amamamambvdkdkdkaybs`l`l`l`l`l`l`l`l`l`l`l`l`l`l`l`l`qcramamamas``````ba",
"amamamacbvdkdkdkdobs`l`l`l`l`l`l`l`l`l`l`l`l`l`l`l`l`qcramamamas``````ba",
"amamamambvdkdkdkdobs`l`l`l`l`l`l`l`l`l`l`l`l`l`l`l`l`qcramamamas``````ba",
"amamamambvdkdkdkazbs`l`l`l`l`l`l`l`l`l`l`l`l`l`l`l`l`qcramamamas``````ba",
"amamamambvdkdkdkdobs`l`l`l`l`l`l`l`l`l`l`l`l`l`l`l`l`qcramamamas``````ba",
"amamamambvdkdkdkazbs`l`l`l`l`l`l`l`l`l`l`l`l`l`l`l`l`qcramamamas``````ba",
"amamamambvdkdkdkazbs`l`l`l`l`l`l`l`l`l`l`l`l`l`l`l`l`qcramamamas``````ba",
"amamamambvdkdkdkazbs`l`l`l`l`l`l`l`l`l`l`l`l`l`l`l`l`qcramamamas``````ba",
"amamamambvdkdkdkazbs`l`l`l`l`l`l`l`l`l`l`l`l`l`l`l`l`qcramamamas``````ba",
"amamamambvdkdkdkazbs`l`l`l`l`l`l`l`l`l`l`l`l`l`l`l`l`qcramamamas``````ba",
"amamamambvdkdkdkazbs`l`l`l`l`l`l`l`l`l`l`l`l`l`l`l`l`qcramamamas``````ba",
"amamamambvdkdkdkazbs`l`l`l`l`l`l`l`l`l`l`l`l`l`l`l`l`qcramamamas``````ba",
"amamamambvdkdkdkaz`l`p`p`p`p`p`p`p`p`p`p`p`p`p`p`p`pdnakamamamas``````ba",
"amamamambvdkdkay`mcpcpcpcpcpcpcpcpcpcpcpcpcpcpcpcpcpcpacamamamas``````ba",
"amamamambvdkay`m`famamamamamamamamamamamamamamamamamamamamamamas``````ba",
"amamamambvay`makamamamamamamamamamamamamamamamamamamamamamamamas``````ba",
"amamamam`r`m`famamamamamamamamamamamamamamamamamamamamamamamamas``````ba",
"amamamamcqcodddddddddddddddddddddddddddddddddddddddddddddddddd`u``````ba",
"amamamambcdecu````````````````````````````````````````````````````````ba",
"amamamamambcdecu``````````````````````````````````````````````````````ba",
"amamamamamambcdecu````````````````````````````````````````````````````ba",
"amamamamamamambcdg````````````````````````````````````````````````````ba"
};
