/* XPM */
static char *allq[] = {
/* width height ncolors chars_per_pixel */
"36 36 21 2",
/* colors */
"`` c #000000",
"`j c #878787",
"`l c #7F7F7F",
"`p c #797979",
"`q c #777777",
"`r c #757575",
"`u c #0B0B10",
"ak c #3B3B3B",
"am c #313131",
"as c #191919",
"ay c #B8B8B8",
"az c #B6B6B6",
"bo c #B3B3AF",
"bs c #868686",
"bv c #7A7A7A",
"cc c #8F8FA2",
"cr c #3C3C3C",
"dd c #181818",
"dk c #BFBFBF",
"dn c #727270",
"do c #B7B7B7",
/* pixels */
"amamamambvdkdkdkazbs`l`l`l`l`l`l`l`l`l`l`l`l`l`l`l`l`qcramamamas````````",
"amamamambvdkdkdkazbs`l`l`l`l`l`l`l`l`l`l`l`l`l`l`l`l`qcramamamas````````",
"amamamambvdkdkdkazbs`l`l`l`l`l`l`l`l`l`l`l`l`l`l`l`l`qcramamamas````````",
"amamamambvdkdkdkazbs`l`l`l`l`l`l`l`l`l`l`l`l`l`l`l`l`qcramamamas````````",
"`p`p`p`pccdkdkdkazbs`l`l`l`l`l`l`l`l`l`l`l`l`l`l`l`l`qcramamamas````````",
"dkdkdkdkdkdkdkdkazbs`l`l`l`l`l`l`l`l`l`l`l`l`l`l`l`l`qcramamamas````````",
"dkdkdkdkdkdkdkdkazbs`l`l`l`l`l`l`l`l`l`l`l`l`l`l`l`l`qcramamamas````````",
"dkdkdkdkdkdkdkdkazbs`l`l`l`l`l`l`l`l`l`l`l`l`l`l`l`l`qcramamamas````````",
"dodododoaydododobobs`l`l`l`l`l`l`l`l`l`l`l`l`l`l`l`l`qcramamamas````````",
"`j`j`j`j`j`j`jbsbs`l`l`l`l`l`l`l`l`l`l`l`l`l`l`l`l`l`qcramamamas````````",
"`l`l`l`l`l`l`l`l`l`l`l`l`l`l`l`l`l`l`l`l`l`l`l`l`l`l`qcramamamas````````",
"`l`l`l`l`l`l`l`l`l`l`l`l`l`l`l`l`l`l`l`l`l`l`l`l`l`l`qcramamamas````````",
"`l`l`l`l`l`l`l`l`l`l`l`l`l`l`l`l`l`l`l`l`l`l`l`l`l`l`qcramamamas````````",
"`l`l`l`l`l`l`l`l`l`l`l`l`l`l`l`l`l`l`l`l`l`l`l`l`l`l`qcramamamas````````",
"`l`l`l`l`l`l`l`l`l`l`l`l`l`l`l`l`l`l`l`l`l`l`l`l`l`l`qcramamamas````````",
"`l`l`l`l`l`l`l`l`l`l`l`l`l`l`l`l`l`l`l`l`l`l`l`l`l`l`qcramamamas````````",
"`l`l`l`l`l`l`l`l`l`l`l`l`l`l`l`l`l`l`l`l`l`l`l`l`l`l`qcramamamas````````",
"`l`l`l`l`l`l`l`l`l`l`l`l`l`l`l`l`l`l`l`l`l`l`l`l`l`l`qcramamamas````````",
"`l`l`l`l`l`l`l`l`l`l`l`l`l`l`l`l`l`l`l`l`l`l`l`l`l`l`qcramamamas````````",
"`l`l`l`l`l`l`l`l`l`l`l`l`l`l`l`l`l`l`l`l`l`l`l`l`l`l`qcramamamas````````",
"`l`l`l`l`l`l`l`l`l`l`l`l`l`l`l`l`l`l`l`l`l`l`l`l`l`l`qcramamamas````````",
"`l`l`l`l`l`l`l`l`l`l`l`l`l`l`l`l`l`l`l`l`l`l`l`l`l`l`qcramamamas````````",
"`l`l`l`l`l`l`l`l`l`l`l`l`l`l`l`l`l`l`l`l`l`l`l`l`l`l`qcramamamas````````",
"`l`l`l`l`l`l`l`l`l`l`l`l`l`l`l`l`l`l`l`l`l`l`l`l`l`l`qcramamamas````````",
"`l`l`l`l`l`l`l`l`l`l`l`l`l`l`l`l`l`l`l`l`l`l`l`l`l`l`qcramamamas````````",
"`l`l`l`l`l`l`l`l`l`l`l`l`l`l`l`l`l`l`l`l`l`l`l`l`l`l`qcramamamas````````",
"`r`r`r`r`r`r`r`r`r`r`r`r`r`r`r`r`r`r`r`r`r`r`r`r`r`rdnakamamamas````````",
"akakakakakakakakakakakakakakakakakakakakakakakakakakakamamamamas````````",
"amamamamamamamamamamamamamamamamamamamamamamamamamamamamamamamas````````",
"amamamamamamamamamamamamamamamamamamamamamamamamamamamamamamamas````````",
"amamamamamamamamamamamamamamamamamamamamamamamamamamamamamamamas````````",
"dddddddddddddddddddddddddddddddddddddddddddddddddddddddddddddd`u````````",
"````````````````````````````````````````````````````````````````````````",
"````````````````````````````````````````````````````````````````````````",
"````````````````````````````````````````````````````````````````````````",
"````````````````````````````````````````````````````````````````````````"
};
