/* XPM */
static char *allq[] = {
/* width height ncolors chars_per_pixel */
"36 36 37 2",
/* colors */
"`a c #060609",
"`b c #26262F",
"`g c #18180D",
"`i c #AD8546",
"`u c #0B0B10",
"`v c #493F2F",
"`y c #B3090D",
"`z c #4B4B4B",
"ac c #343331",
"ae c #8A0F0F",
"ah c #292A30",
"am c #313131",
"as c #191919",
"ax c #6F5035",
"bc c #2E2E2D",
"be c #BC8748",
"bg c #792617",
"bi c #797952",
"bp c #A80A0D",
"bx c #A57841",
"c` c #EBEC6E",
"cf c #9F743E",
"ch c #B3B93A",
"ci c #A97D41",
"ck c #48221A",
"cl c #3B352E",
"cn c #2F2F36",
"co c #1D1D21",
"cs c #7F7E4C",
"cy c #75371E",
"cz c #BA8547",
"d` c #423727",
"dc c #906638",
"dh c #252428",
"di c #373733",
"dj c #A6080C",
"dl c #452E23",
/* pixels */
"amamamamamamamamamacdiamamamamamamamamamcnamamcncnamcnamamamamamamamamam",
"amamamamamamamamamamamamamamamamamamamamamamamamamamamamamamamamamamamam",
"amamamamamamamamamamamamamamamamamclclbcamamamamamamamamamamamamamamamam",
"amamamamamamamamamamamamamambcaxdccfcfdcaxacamamamamamamamamamamamamamam",
"amamamamamamamamamamamamambcd`bxczbebeczcid`dhacamamamamamamamamamamamam",
"amamamamamamamamamamamambcbc`adldcczbeci`v`gdlamamamamamamamamamamamamam",
"amamamamamamamamamamamamamd`ax`vdlcfciaxckaxdcbcamamamamamamamamamamamam",
"amamamamamamamamamamamamacd`ciaxd`dccz`v`vcfcfclamamamamamamamamamamamam",
"amamamamamamamamamamamambcclbxcfdccfcfcfciczdcdhbcamamamamamamamamamamam",
"amamamamamamamamamambcaxaxaxcychchc`chchchcfcyaxaxax`vamamamamamamamamam",
"amamamamamamamamam`vcf`ibedccyc`c`chc`c`chchaecfbebeciaxclamamamamamamam",
"amamamamamamamamd`bxbebebecy`ychc`c`c`c`c`chbpdcbebebe`iaxamamamamamamam",
"amamamamamamamamdcczbebebecy`ydcchc`chc`chbg`ydcczbebebecfd`amamamamamam",
"amamamamamamac`v`ibebebebebp`ycychc`c`chchcy`ybgczbebebeczdcbcamamamamam",
"amamamamamamclcfbebebebecibg`ycycschchchcscy`yaebebebebebecid`amamamamam",
"amamamamambcaxczbebebebecibp`y`vcscscsbibicy`ybpcibebebebecz`vamamamamam",
"amamamamambcdcczbebebebecfbpbpaxbibibibi`z`v`yaecibebebebebeaxbcamamamam",
"amamamamamaccfbebebebeczdcdj`ybgcyckcyd`cyae`ybpcfbebebebebeaxbcamamamam",
"amamamamambccfczbebebebecfdj`y`ydj`ybp`y`y`y`yaecibebebebebedcbcamamamam",
"amamamamambcdcbebebebeczciae`y`y`y`y`y`y`y`y`ybgczbebebebebeaxbcamamamam",
"amamamamambcaxczbebebebeciae`y`y`y`y`y`y`y`y`ycybebebebebebeaxbcamamamam",
"amamamamamamd`cibebebeczdcck`y`y`y`y`y`y`y`y`ydcbebebebebe`i`vamamamamam",
"amamamamamamamdcczbebebxd`ck`y`y`y`ybp`y`y`ybpcfczbebebebecfacamamamamam",
"amamamamamambcacdcczbeaxbcckdj`y`ydjbg`y`y`ydjcyczbebebeczaxbcamamamamam",
"amamamamamamamamcldcbx`vamck`y`y`yaeckdj`y`ybpckdcbebebecfclamamamamamam",
"amamamamamamamambccl`vbcahae`y`y`yaeckdj`y`y`yckcldcczcz`vamamamamamamam",
"amamamamamamamamamamamacbcae`y`y`ybgcoae`y`y`ybg`bcldcaxclacamamamamamam",
"amamamamamamamamamamamacdhdj`y`y`yckdhbg`y`ydjaebcamacclamamamamamamamam",
"amamamamamamamamamamamamckdj`y`ydjckahck`y`y`yaebcamamamamamamamamamamam",
"amamamamamamamamamambcahckaeaedjaedhcnckdj`ydjdjckbcamamamamamamamamamam",
"amamamamamamamambcckckckbgbgbgckbgbcbcckckbgbgckckckckbcbcamamamamamamam",
"amamamamamamamdlckcycycycycycycycyckbcckbgcybgcycycycycyckbcamamamamamam",
"amamamamamambcckckcyckckckckckckcyckckckcyckcycyckcycyckcyckbcamamamamam",
"amamamamamamamas`g`g`g`g`g`g`g`g`g`gdh`g`g`g`u`g`g`g`g`g`g`gbcamamamamam",
"amamamamamamamambcbcamacacacbcbcbcbcambcdhbcbcdhdhdhdhbcdhbcamamamamamam",
"amamamamamamamamamamamambcamacamamamamamacacbcacclacclbcclamamamamamamam"
};
