/* XPM */
static char *allq[] = {
/* width height ncolors chars_per_pixel */
"36 36 30 2",
/* colors */
"`` c #000000",
"`f c #3A3A35",
"`j c #878787",
"`l c #7F7F7F",
"`m c #7D7D7D",
"`n c #42434D",
"`p c #797979",
"`q c #777777",
"`r c #757575",
"`w c #848480",
"ac c #343331",
"ak c #3B3B3B",
"am c #313131",
"ar c #514E50",
"as c #191919",
"ay c #B8B8B8",
"az c #B6B6B6",
"bo c #B3B3AF",
"bq c #8A8A8A",
"bs c #868686",
"bv c #7A7A7A",
"cc c #8F8FA2",
"cp c #404040",
"cr c #3C3C3C",
"cu c #000101",
"dd c #181818",
"dh c #252428",
"dk c #BFBFBF",
"dn c #727270",
"do c #B7B7B7",
/* pixels */
"amamamamamamamamamamamamamamamamamamamamamamamamamamamamamamamamamamamam",
"amamamamamamamamamamamamamamamamamamamamamamamamamamamamamamamamamamamam",
"amamamamamamamamamamamamamamamamamamamamamamamamamamamamamamamamamamamam",
"amamamamamamamamamamamamamamamamamamamamamamamamamamamamamamamamamamamam",
"dn`p`p`pdn`q`p`pdndn`p`p`pdn`q`p`pdn`r`p`p`pdn`q`p`pdndn`p`p`qdn`q`p`pdn",
"dkdkdkdkdkdkdkdkdkdkdkdkdkdkdkdkdkdkdkdkdkdkdkdkdkdkdkdkdkdkdkdkdkdkdkdk",
"dkdkdkdkdkdkdkdkdkdkdkdkdkdkdkdkdkdkdkdkdkdkdkdkdkdkdkdkdkdkdkdkdkdkdkdk",
"dkdkdkdkdkdkdkdkdkdkdkdkdkdkdkdkdkdkdkdkdkdkdkdkdkdkdkdkdkdkdkdkdkdkdkdk",
"azdododoboazdodoazazdododobodododoazazdododobodododoazazdodoazbodododoaz",
"bs`j`j`j`w`j`j`j`wbs`j`j`j`w`j`j`j`wbs`j`j`j`w`j`j`j`wbs`j`j`j`w`j`jbsbs",
"`l`l`l`l`l`l`l`l`l`l`l`l`l`l`l`l`l`l`l`l`l`l`l`l`l`l`l`l`l`l`l`l`l`l`l`l",
"`l`l`l`l`l`l`l`l`l`l`l`l`l`l`l`l`l`l`l`l`l`l`l`l`l`l`l`l`l`l`l`l`l`l`l`l",
"`l`l`l`l`l`l`l`l`l`l`l`l`l`l`l`l`l`l`l`l`l`l`l`l`l`l`l`l`l`l`l`l`l`l`l`l",
"bv`l`l`l`p`l`l`lbvbv`l`l`l`p`l`l`lbvbv`l`l`l`p`l`l`lbvbv`l`l`l`p`l`l`lbv",
"`l`l`l`l`l`l`l`l`l`l`l`l`l`l`l`l`l`l`l`l`l`l`l`l`l`l`l`l`l`l`l`l`l`l`l`l",
"`l`l`l`l`l`l`l`l`l`l`l`l`l`l`l`l`l`l`l`l`l`l`l`l`l`l`l`l`l`l`l`l`l`l`l`l",
"`l`l`l`l`l`l`l`l`l`l`l`l`l`l`l`l`l`l`l`l`l`l`l`l`l`l`l`l`l`l`l`l`l`l`l`l",
"`m`l`l`lbv`l`l`l`m`m`l`l`lbv`l`l`l`m`m`l`l`lbv`l`l`l`m`m`l`l`lbv`l`l`l`m",
"`m`l`l`lbv`l`l`l`m`m`l`l`lbv`l`l`l`m`m`l`l`lbv`l`l`l`m`m`l`l`lbv`l`l`l`m",
"`l`l`l`l`l`l`l`l`l`l`l`l`l`l`l`l`l`l`l`l`l`l`l`l`l`l`l`l`l`l`l`l`l`l`l`l",
"`l`l`l`l`l`l`l`l`l`l`l`l`l`l`l`l`l`l`l`l`l`l`l`l`l`l`l`l`l`l`l`l`l`l`l`l",
"`l`l`l`l`l`l`l`l`l`l`l`l`l`l`l`l`l`l`l`l`l`l`l`l`l`l`l`l`l`l`l`l`l`l`l`l",
"bv`l`l`l`p`l`l`lbvbv`l`l`l`p`l`l`lbvbv`l`l`l`p`l`l`lbvbv`l`l`l`p`l`l`lbv",
"`l`l`l`l`l`l`l`l`l`l`l`l`l`l`l`l`l`l`l`l`l`l`l`l`l`l`l`l`l`l`l`l`l`l`l`l",
"`l`l`l`l`l`l`l`l`l`l`l`l`l`l`l`l`l`l`l`l`l`l`l`l`l`l`l`l`l`l`l`l`l`l`l`l",
"`l`l`l`l`l`l`l`l`l`l`l`l`l`l`l`l`l`l`l`l`l`l`l`l`l`l`l`l`l`l`l`l`l`l`l`l",
"`r`r`r`r`r`r`r`r`q`m`l`l`lbv`l`l`l`m`m`l`l`lbv`l`l`l`m`r`r`r`r`r`r`r`r`r",
"akakakakakakakakdn`l`l`l`lbv`l`l`l`m`m`l`l`lbv`l`l`l`qcpakakakakakakakak",
"amamamamamamacarcc`j`l`l`l`l`l`l`l`l`l`l`l`l`l`l`l`l`qcramamamamamamamam",
"amamamamam`farbqaz`j`l`l`l`l`l`l`l`l`l`l`l`l`l`l`l`l`qcramamamamamamamam",
"amamamamacarbsboazbs`l`l`l`l`l`l`l`l`l`l`l`l`l`l`l`l`qcramamamamamamamam",
"asddddascp`lbqaybo`l`l`l`l`p`l`l`lbvbv`l`l`l`p`l`l`ldnakamamamdhasddasas",
"````````cp`wbodkazbs`l`l`l`l`l`l`l`l`l`l`l`l`l`l`l`l`qcramamamas````````",
"````````cpbqdodkazbs`l`l`l`l`l`l`l`l`l`l`l`l`l`l`l`l`qcramamamas````````",
"````````cpboaydkazbs`l`l`l`l`l`l`l`l`l`l`l`l`l`l`l`l`qcramamamas````````",
"cu```````nazdkdkazbs`l`l`l`l`l`l`l`l`l`l`l`l`l`l`l`l`qakamamamas``````cu"
};
