/* XPM */
static char *allq[] = {
/* width height ncolors chars_per_pixel */
"36 36 32 2",
/* colors */
"`` c #000000",
"`j c #878787",
"`l c #7F7F7F",
"`m c #7D7D7D",
"`o c #ABA989",
"`p c #797979",
"`q c #777777",
"`r c #757575",
"ac c #343331",
"am c #313131",
"as c #191919",
"ay c #B8B8B8",
"az c #B6B6B6",
"ba c #030303",
"bc c #2E2E2D",
"bq c #8A8A8A",
"bs c #868686",
"bv c #7A7A7A",
"bz c #FFFF8F",
"cb c #BDBCB8",
"cc c #8F8FA2",
"cj c #ABAEFC",
"co c #1D1D21",
"cq c #3E3E3E",
"cr c #3C3C3C",
"cu c #000101",
"de c #171617",
"df c #9DE4FA",
"di c #373733",
"dk c #BFBFBF",
"dn c #727270",
"do c #B7B7B7",
/* pixels */
"amamamamamamamamamamamamamamamamamamamamamamamamamamamamamamamamamamamam",
"amamamamamamamamamamamamamamamamamamamamamamamamamamamamamamamamamamamam",
"amamamamamamamamamamamamamamamamamamamamamamamamamamamamamamamamamamamam",
"amamamamacamamamamamamamamamamamamamamamamamamamamamamamamamamamamamamam",
"amamamamdnbs`p`p`p`p`p`p`p`p`p`p`p`p`p`p`p`p`p`p`p`p`p`p`p`pdncrbcamamam",
"amamamacccdkdkdkdkdkdkdkdkdkdkdkdkdkdkdkdkdkdkdkdkdkdkdkdkay`rcoasbcamam",
"amamamambvdkdfdkdkdkdkdkdkdkdkdkdkdkdkdkdkdkdkdkdkdkdkdkay`rdiasbaasamam",
"amamamam`jdkbzdkdkdkdkdkdkdkdkdkdkdkdkdkdkdkdkdkdkdkdkay`rdiamas``baasbc",
"amamamambvdkcjdkdfdkcbcbazdododododododododododododoaz`rdiamamas````bade",
"amamamam`ldkdkdkdk`obq`j`j`j`j`j`j`j`j`j`j`j`j`j`j`j`lcqamamamas``````cu",
"amamamambvdkdkdkdkbq`l`l`l`l`l`l`l`l`l`l`l`l`l`l`l`l`qcramamamas````````",
"amamamac`ldkdkdkcb`j`l`l`l`l`l`l`l`l`l`l`l`l`l`l`l`l`qcramamamas````````",
"amamamambvdkdkdkcbbs`l`l`l`l`l`l`l`l`l`l`l`l`l`l`l`l`qcramamamas````````",
"amamamam`mdkdkdkazbs`l`l`l`l`l`l`l`l`l`l`l`l`l`l`l`l`qcramamamas````````",
"amamamambvdkdkdkaybs`l`l`l`l`l`l`l`l`l`l`l`l`l`l`l`l`qcramamamas````````",
"amamamacbvdkdkdkdobs`l`l`l`l`l`l`l`l`l`l`l`l`l`l`l`l`qcramamamas````````",
"amamamambvdkdkdkdobs`l`l`l`l`l`l`l`l`l`l`l`l`l`l`l`l`qcramamamas````````",
"amamamambvdkdkdkazbs`l`l`l`l`l`l`l`l`l`l`l`l`l`l`l`l`qcramamamas````````",
"amamamambvdkdkdkdobs`l`l`l`l`l`l`l`l`l`l`l`l`l`l`l`l`qcramamamas````````",
"amamamambvdkdkdkazbs`l`l`l`l`l`l`l`l`l`l`l`l`l`l`l`l`qcramamamas````````",
"amamamambvdkdkdkazbs`l`l`l`l`l`l`l`l`l`l`l`l`l`l`l`l`qcramamamas````````",
"amamamambvdkdkdkazbs`l`l`l`l`l`l`l`l`l`l`l`l`l`l`l`l`qcramamamas````````",
"amamamambvdkdkdkazbs`l`l`l`l`l`l`l`l`l`l`l`l`l`l`l`l`qcramamamas````````",
"amamamambvdkdkdkazbs`l`l`l`l`l`l`l`l`l`l`l`l`l`l`l`l`qcramamamas````````",
"amamamambvdkdkdkazbs`l`l`l`l`l`l`l`l`l`l`l`l`l`l`l`l`qcramamamas````````",
"amamamambvdkdkdkazbs`l`l`l`l`l`l`l`l`l`l`l`l`l`l`l`l`qcramamamas````````",
"amamamambvdkdkdkazbs`l`l`l`l`l`l`l`l`l`l`l`l`l`l`l`l`qcramamamas````````",
"amamamambvdkdkdkazbs`l`l`l`l`l`l`l`l`l`l`l`l`l`l`l`l`qcramamamas````````",
"amamamambvdkdkdkazbs`l`l`l`l`l`l`l`l`l`l`l`l`l`l`l`l`qcramamamas````````",
"amamamambvdkdkdkazbs`l`l`l`l`l`l`l`l`l`l`l`l`l`l`l`l`qcramamamas````````",
"amamamambvdkdkdkazbs`l`l`l`l`l`l`l`l`l`l`l`l`l`l`l`l`qcramamamas````````",
"amamamambvdkdkdkazbs`l`l`l`l`l`l`l`l`l`l`l`l`l`l`l`l`qcramamamas````````",
"amamamambvdkdkdkazbs`l`l`l`l`l`l`l`l`l`l`l`l`l`l`l`l`qcramamamas````````",
"amamamambvdkdkdkazbs`l`l`l`l`l`l`l`l`l`l`l`l`l`l`l`l`qcramamamas````````",
"amamamambvdkdkdkazbs`l`l`l`l`l`l`l`l`l`l`l`l`l`l`l`l`qcramamamas````````",
"amamamambvdkdkdkazbs`l`l`l`l`l`l`l`l`l`l`l`l`l`l`l`l`qcramamamas````````"
};
