/* XPM */
static char *allq[] = {
/* width height ncolors chars_per_pixel */
"36 36 48 2",
/* colors */
"`` c #000000",
"`a c #060609",
"`b c #26262F",
"`c c #6D6C99",
"`d c #121525",
"`k c #5D7CE2",
"`n c #42434D",
"`s c #3257AA",
"`u c #0B0B10",
"`x c #394B89",
"a` c #7278C4",
"aa c #10111B",
"ac c #343331",
"ag c #38394C",
"ak c #3B3B3B",
"al c #333E68",
"am c #313131",
"an c #3C508B",
"ao c #171314",
"ap c #232B4E",
"as c #191919",
"au c #434577",
"b` c #222232",
"ba c #030303",
"bb c #181A28",
"bc c #2E2E2D",
"bh c #4C4D72",
"bt c #343546",
"bu c #5E8CF0",
"by c #1B2037",
"cc c #8F8FA2",
"ce c #6365AF",
"cj c #ABAEFC",
"ck c #48221A",
"cl c #3B352E",
"cn c #2F2F36",
"co c #1D1D21",
"ct c #7173C6",
"cv c #5C5F83",
"cx c #545685",
"db c #16182A",
"dd c #181818",
"de c #171617",
"dg c #141414",
"dh c #252428",
"di c #373733",
"dl c #452E23",
"dm c #253560",
/* pixels */
"amamamamamamamamamamamamamamamamamamamamamamamamamamamamamamamamamamamam",
"amamamamamamamamamamamamamamamamamamamamamamamamamamamamamamamamamamamam",
"amamamamamamamamamamamamamamdiagag`nagagakcnamamamamamamamamamamamamamam",
"amamamamamamamamamamaccn`ncxcecececececxcxauagbtamamamamamamamamamamamam",
"amamamamamamamamamdibhcectctctcececececececxanauagbtamamamamamamamamamam",
"amamamamamamamamagcxctctctctctctctcececececxcxauaualbtamamamamamamamamam",
"amamamamamamam`ncectct`ka`ctctctcectceceanceancxaualagapbcamamamamamamam",
"amamamamamam`ncectctcja`buctctctcecececececxcxcxaualalapb`bcamamamamamam",
"amamamamambtcectbua`cjcjctcjctctcecececxceancx`xauauagagbyb`amamamamamam",
"amamamaccncvctctctcjcjcjcjctctctcecececececxcxauaualalapapbbdhamamamamam",
"amamamam`nct`ka`cjcjcjcjctctctctcececeancxancx`xauauagapapbb`dcoacamamam",
"amamamamcectctcjctbucjcjcjctctcececececxcecxauauaualdmagb`b``ddgdhamamam",
"amamamagcectctctctcjctctctctctcecececx`scx`xcxauauagagapapb`dbaa`ubcamam",
"amamambhctctctctctctctctctcectcececececxcxauauaualalapapb`bydbaa`acoamam",
"amamamcxctctctctctctctctctcta`a`a``ccxcxcxauauauagdmbtapb`b`db`d`a`ubcam",
"amamcncecectctctctctctctce`ca`a`a`cececx`xauaualalagapb`b`bydb`d`ubadham",
"amambtcecececectcecececececea`cca``ccxcxauaualalapapapapb`byb``d`u``asam",
"amamagcxcecececececececece`ccece`ccecxauauaualagapbtapb`byb`dbdb`uba`uam",
"amambtcxcececececececxcecxce`ccecvcxcxauaualapagapapb`b`b`bydb`d`uba`abc",
"amacbtancxcecececxceancecxcxcxcxcxauaualalalagapapapb`apbyb`db`d`u```abc",
"amamdiauceancxancecxcxancxancx`xauauaualagapapbtb`apb`b`b`bydbaa`a```abc",
"amcnclalancxcecxcxancxcx`xcxauauaualalalagapbtapapb`apbyb`db`daa`a```abc",
"amamamagaucx`x`xcx`xcx`xauauauaualalagapapapapb`btb`b`b`bydb`d`uba```ubc",
"amamamcnauauauaucxauauauauaualalalagapbtapbtb`apb`apbyb`dbdbaa`u````dgam",
"amamamambtalauauauauauaualalagagapapagapapb`apb`b`b`b`bydb`daaba````coam",
"amamamcncnagalalalalalalagapalapbtapapapb`apb`apbyb`dbdbdbaa`a`````adham",
"amamamamcncnapagapagapagapagapapapb`b`b`apb`b`b`b`b`dbdbaa`u`a````dgamam",
"amamamamcndlb`apapapapapapapapb`b`apb`apb`b`b`b`b`dbdb`d`uba````badhamam",
"amamamamcncncn`bb`b`apb`b`b`b`apb`b`b`b`b`byb`bydbdbaaao`aba``baddamamam",
"amamamamaccncnckb`dbb`b`b`b`b`b`b`b`b`b`byb`dbdbdbaa`u`a```````ubcamamam",
"amamamamamamcncncncoaodbdbb`byb`bybyb`bydbdbdbaaaa`ubaba`````udhacamamam",
"amamamamamamamcndlcncoaoaaaa`ddbdbdbdb`d`daa`u`ubaba````ba`udhamamamamam",
"amamamamamamamamcncnbcco`u`a`u`u`u`u`u`u`u`a`aba``````badebcacamamamamam",
"amamamamamamamamamamcnclbcas`abababababababa``````badgdhamamamamamamamam",
"amamamamamamamamamamamamamacbccoao`ubabababa`adgasdhbcamamamamamamamamam",
"amamamamamamamamamamamamamamacacbcbcbcbcdhdhbcbcamamamamamamamamamamamam"
};
