/* XPM */
static char *allq[] = {
/* width height ncolors chars_per_pixel */
"36 36 49 2",
/* colors */
"`e c #3E3E39",
"`f c #3A3A35",
"`g c #18180D",
"`h c #8F8E5A",
"`i c #AD8546",
"`v c #493F2F",
"`y c #B3090D",
"`z c #4B4B4B",
"ac c #343331",
"ae c #8A0F0F",
"af c #F4F48A",
"ah c #292A30",
"ai c #B7AF62",
"am c #313131",
"aq c #DDDD80",
"av c #F7F78C",
"aw c #99995E",
"ax c #6F5035",
"bc c #2E2E2D",
"be c #BC8748",
"bg c #792617",
"bi c #797952",
"bl c #93935E",
"bm c #393934",
"bn c #A0A16E",
"bp c #A80A0D",
"br c #F6F68A",
"bx c #A57841",
"bz c #FFFF8F",
"c` c #EBEC6E",
"ca c #878758",
"cd c #3C3C36",
"cf c #9F743E",
"cg c #FAFB8D",
"ch c #B3B93A",
"ci c #A97D41",
"ck c #48221A",
"cl c #3B352E",
"cm c #9C9C6C",
"cn c #2F2F36",
"cs c #7F7E4C",
"cy c #75371E",
"cz c #BA8547",
"d` c #423727",
"dc c #906638",
"dh c #252428",
"di c #373733",
"dj c #A6080C",
"dl c #452E23",
/* pixels */
"bzbzbzbzbzbzbzav`hdiamamamamamam`fbncgbzbzbzbzbzbzafcaacamamamamamamcdbn",
"bzbzbzbzbzbzcgawcdamamamamamambmawbrbzbzbzbzbzbzbrblbmamamamamamamcdcmbr",
"bzbzbzbzbzavaw`eamamamamamamdicsaiaiaqaqbrbzbzbrbl`famamamamamamcdawcgbz",
"bzbzbzbzavcmcdamamamamamamamaxci`iczcicfaiafafawbmamamamamamamcdcmcgbzbz",
"bzbzbzavawcdamamamamamambm`vaxczbebeczbedcaxcabmamamamamamamcdawcgbzbzbz",
"bzbzavcmcdamamamamamam`fblax`g`vcfcz`idc`gckclamamamamamam`eawcgbzbzbzbz",
"bzavaw`eamamamamamambmblafcfaxcyaxcicfdl`vdcaxbcamamamam`fawcgbzbzbzbzbz",
"brbncdamamamamamam`fblafaf`icf`v`vcidc`vaxbe`vbcamamamcdawcgbzbzbzbzbzbz",
"blcdamamamamamambmblafafaqcacicfcfcicicfciczd`clbcam`fcmavbzbzbzbzbzbzcg",
"acamamamamamambmblaqai`icicychchc`chc`chchdcdldcdcaxcsafbzbzbzbzbzbzafaw",
"amamamamamambmblaq`i`icz`ibgcichc`c`chc`chciaebebecz`iaiafbzbzbzbzaf`h`f",
"amamamamambmblaq`iczbebecibpcichc`c`c`c`chdcae`ibebeczczaibzbzbzafblbmam",
"amamamambmblafaiczbebebebxbpbpchchc`c`chch`ybpciczbebecz`iaqbzafbldiamam",
"amamamdiblafaq`ibebebeczcfbpaedcchc`c`chaxaebpdcbebebebeczawafblbmamamam",
"amambmblafbr`iczbebebebedcdjdjaxcschchchbibg`ydcczbebebebecicsbmamamamam",
"amdiblafcgaq`ibebebeczczdcbpbgbicscscs`zbiae`ycyczbebebeczcfacamamamamam",
"bm`hafbzbzaicibebebebeczbg`ydj`vbibi`zcs`zbg`ybgbebebebebecid`amamamamam",
"awafbzbzcgaiczbebebebebecy`ybpbgcycycycybgbp`yaeczbebebebe`i`vamamamamdi",
"cgbzbzbzbzaicibebebebebecy`y`y`ybpbpbp`y`y`y`ydcczbebebebecz`vamamamcdbl",
"bzbzbzbzcgaiczbebebebebedc`y`y`y`y`y`y`y`y`y`ydcczbebebecz`id`amamcdawav",
"bzbzbzbzbzaqcfbebebebebedcdj`y`y`y`y`y`y`y`ydjdcczbebebebebxclamdiblavbz",
"bzbzbzbzbrawaxbebebebeczdlae`y`y`y`y`y`y`y`ydjcibebebebebedcbcdi`hafbzbz",
"bzbzbzavaw`ed`cfbebebeaxclbg`y`y`ybpbp`y`y`ybgczczbebebeczaxdi`hafbzbzbz",
"bzbzcgcmcdamac`vbxbeci`vcabg`y`y`yaeae`y`y`yaedcbebebebebx`v`hafbzbzbzbz",
"bzavawcdacamamam`vcfdcblaqbp`y`y`ycydc`y`y`yaedlbxbebeczaxcaafbzbzbzbzbz",
"brbncdamamamamamam`v`hcgaibp`y`y`yczbx`y`y`yaedl`vciczcf`hafbzbzbzbzbzbz",
"blcdamamamamamambmblafbzai`y`y`y`ybebxdj`y`ydjckam`vcfawafbzbzbzbzbzbzbz",
"acamamamamamambmblafbzcgbx`y`y`ydjbicldj`y`y`yckam`fawbrbzbzbzbzbzbzavai",
"amamamamamambmblafbzbzafdc`y`y`yaecnbcae`y`y`yckclawavbzbzbzbzbzbzavbncd",
"amamamamambmblafbzaqaqaibgdjaeaeckbcbcckdjdjdjaebiaqavbzbzbzbzbzbrbncdam",
"amamamambmblafaq`iaxcycycybgcybgckdlahckbgbgckckcyaxdcawc`bzbzcgbnclacam",
"amamamdiblafafaxcycycycycyckcycycyckdhcybgcycycycycycycyaxaqbrbncdamamam",
"amambmblafbzaidlckckckckckckckckckckdhckcyckbgckcyckcyckcycsaibmamamamam",
"amdiblafbzbzc`axcsaxaxbc`g`g`g`g`g`gdh`gdld`d`d`d`d`d`d`d`d``famamamamam",
"bm`hafbzbzbzbzcgbrbrbn`vacacamamamacclcsc`c`afc`c`c`afc``hacamamamamamam",
"`hafbzbzbzbzbzbzbzai`ebcamamamamamambiafbzbzcgbzbzbzcgai`eamamamamamamam"
};
