/* XPM */
static char *allq[] = {
/* width height ncolors chars_per_pixel */
"36 36 30 2",
/* colors */
"`` c #000000",
"`l c #7F7F7F",
"`m c #7D7D7D",
"`n c #42434D",
"`o c #ABA989",
"`p c #797979",
"`q c #777777",
"`r c #757575",
"`w c #848480",
"`z c #4B4B4B",
"ac c #343331",
"ad c #777876",
"aj c #3C3D3C",
"am c #313131",
"ar c #514E50",
"as c #191919",
"ay c #B8B8B8",
"az c #B6B6B6",
"bo c #B3B3AF",
"bq c #8A8A8A",
"bs c #868686",
"bv c #7A7A7A",
"cc c #8F8FA2",
"co c #1D1D21",
"cu c #000101",
"de c #171617",
"di c #373733",
"dk c #BFBFBF",
"dn c #727270",
"do c #B7B7B7",
/* pixels */
"amamamam`rdkdkdkaybq`l`l`l`l`l`l`l`l`l`l`l`l`l`l`l`l`qajamamamascu``````",
"amamamam`rdkdkdkaybq`l`l`l`l`l`l`l`l`l`l`l`l`l`l`l`l`qajamamamco````````",
"amamamam`rdkdkdkaybq`l`l`l`l`l`l`l`l`l`l`l`l`l`l`l`l`qajamamamas````````",
"amamamam`rdkdkdkaybq`l`l`l`l`l`l`l`l`l`l`l`l`l`l`l`l`qajamamamco````````",
"`w`w`w`wccdkdkdkaybq`l`l`l`l`l`l`l`l`l`l`l`l`l`l`l`l`qajamamac`n`z`z`zar",
"dkdkdkdkdkdkdkdkaybq`l`l`l`l`l`l`l`l`l`l`l`l`l`l`l`l`qajamdiarbvbsbqbodk",
"dkdkdkdkdkdkdkdkaybq`l`l`l`l`l`l`l`l`l`l`l`l`l`l`l`l`qajacarbsbqbodkdkdk",
"dkdkdkdkdkdkdkdkaybq`l`l`l`l`l`l`l`l`l`l`l`l`l`l`l`lad`narbqbodkdkdkdkdk",
"azazazazazazazazbobs`l`l`l`l`l`l`l`l`l`l`l`l`l`l`l`l`pdn`odoazazazazazaz",
"bsbsbsbsbsbsbsbsbs`l`l`l`l`l`l`l`l`l`l`l`l`l`l`l`l`l`l`lbsbsbsbsbsbsbsbs",
"`l`l`l`l`l`l`l`l`l`l`l`l`l`l`l`l`l`l`l`l`l`l`l`l`l`l`l`l`l`l`m`l`m`l`l`l",
"`l`l`l`l`l`l`l`l`l`l`l`l`l`l`l`l`l`l`l`l`l`l`l`l`l`l`l`l`l`l`l`l`l`l`l`l",
"`l`l`l`l`l`l`l`l`l`l`l`l`l`l`l`l`l`l`l`l`l`l`l`l`l`l`l`l`l`l`l`l`l`l`l`l",
"`l`l`l`l`l`l`l`l`l`l`l`l`l`l`l`l`l`l`l`l`l`l`l`l`l`l`l`l`l`l`l`l`l`l`l`l",
"`l`l`l`l`l`l`l`l`l`l`l`l`l`l`l`l`l`l`l`l`l`l`l`l`l`l`l`l`l`l`l`l`l`l`l`l",
"`l`l`l`l`l`l`l`l`l`l`l`l`l`l`l`l`l`l`l`l`l`l`l`l`l`l`l`l`l`l`l`l`l`l`l`l",
"`l`l`l`l`l`l`l`l`l`l`l`l`l`l`l`l`l`l`l`l`l`l`l`l`l`l`l`l`l`l`l`l`l`l`l`l",
"`l`l`l`l`l`l`l`l`l`l`l`l`l`l`l`l`l`l`l`l`l`l`l`l`l`l`l`l`l`l`l`l`l`l`l`l",
"`l`l`l`l`l`l`l`l`l`l`l`l`l`l`l`l`l`l`l`l`l`l`l`l`l`l`l`l`l`l`l`l`l`l`l`l",
"`l`l`l`l`l`l`l`l`l`l`l`l`l`l`l`l`l`l`l`l`l`l`l`l`l`l`l`l`l`l`l`l`l`l`l`l",
"`l`l`l`l`l`l`l`l`l`l`l`l`l`l`l`l`l`l`l`l`l`l`l`l`l`l`l`l`l`l`l`l`l`l`l`l",
"`l`l`l`l`l`l`l`l`l`l`l`l`l`l`l`l`l`l`l`l`l`l`l`l`l`l`l`l`l`l`l`l`l`l`l`l",
"`l`l`l`l`l`l`l`l`l`l`l`l`l`l`l`l`l`l`l`l`l`l`l`l`l`l`l`l`l`l`l`l`l`l`l`l",
"`l`l`l`l`l`l`l`l`l`l`l`l`l`l`l`l`l`l`l`l`l`l`l`l`l`l`l`l`l`l`l`l`l`l`l`l",
"`l`l`l`l`l`l`l`l`l`l`l`l`l`l`l`l`l`l`l`l`l`l`l`l`l`l`l`l`l`l`l`l`l`l`l`l",
"`l`l`l`l`l`l`l`l`l`l`l`l`l`l`l`l`l`l`l`l`l`l`l`l`l`l`l`l`l`l`l`l`l`l`l`l",
"`q`q`q`q`q`q`q`q`q`q`q`q`q`q`q`q`q`q`q`q`q`q`q`q`q`q`q`q`q`q`q`q`q`q`q`q",
"ajajajajajajajajajajajajajajajajajajajajajajajajajajajajajajajajajajajaj",
"amamamamamamamamamamamamamamamamamamamamamamamamamamamamamamamamamamamam",
"amamamamamamamamamamamamamamamamamamamamamamamamamamamamamamamamamamamam",
"amamamamamamamamamamamamamamamamamamamamamamamamamamamamamamamamamamamam",
"dededededededededededededededededededededededededededededededededededede",
"````````````````````````````````````````````````````````````````````````",
"````````````````````````````````````````````````````````````````````````",
"````````````````````````````````````````````````````````````````````````",
"````````````````````````````````````````````````````````````````````````"
};
