/* XPM */
static char *allq[] = {
/* width height ncolors chars_per_pixel */
"36 36 27 2",
/* colors */
"`` c #000000",
"`f c #3A3A35",
"`l c #7F7F7F",
"`m c #7D7D7D",
"`p c #797979",
"`q c #777777",
"`r c #757575",
"`u c #0B0B10",
"ac c #343331",
"ak c #3B3B3B",
"am c #313131",
"as c #191919",
"ay c #B8B8B8",
"az c #B6B6B6",
"bc c #2E2E2D",
"bs c #868686",
"bv c #7A7A7A",
"co c #1D1D21",
"cp c #404040",
"cq c #3E3E3E",
"cr c #3C3C3C",
"cu c #000101",
"dd c #181818",
"de c #171617",
"dg c #141414",
"dk c #BFBFBF",
"dn c #727270",
/* pixels */
"amamamambvdkdkdkazbs`l`l`l`l`l`l`l`l`l`l`l`l`l`l`l`l`qcramamamas````````",
"amamamambvdkdkdkazbs`l`l`l`l`l`l`l`l`l`l`l`l`l`l`l`l`qcramamamas````````",
"amamamambvdkdkdkazbs`l`l`l`l`l`l`l`l`l`l`l`l`l`l`l`l`qcramamamas````````",
"amamamambvdkdkdkazbs`l`l`l`l`l`l`l`l`l`l`l`l`l`l`l`l`qcramamamas````````",
"amamamambvdkdkdkazbs`l`l`l`l`l`l`l`l`l`l`l`l`l`l`l`l`qcramamamas````````",
"amamamambvdkdkdkazbs`l`l`l`l`l`l`l`l`l`l`l`l`l`l`l`l`qcramamamas````````",
"amamamambvdkdkdkazbs`l`l`l`l`l`l`l`l`l`l`l`l`l`l`l`l`qcramamamas````````",
"amamamambvdkdkdkazbs`l`l`l`l`l`l`l`l`l`l`l`l`l`l`l`l`qcramamamas````````",
"amamamambvdkdkdkazbs`l`l`l`l`l`l`l`l`l`l`l`l`l`l`l`l`qcramamamas````````",
"amamamambvdkdkdkazbs`l`l`l`l`l`l`l`l`l`l`l`l`l`l`l`l`qcramamamas````````",
"amamamambvdkdkdkazbs`l`l`l`l`l`l`l`l`l`l`l`l`l`l`l`l`qcramamamas````````",
"amamamambvdkdkdkazbs`l`l`l`l`l`l`l`l`l`l`l`l`l`l`l`l`qcramamamas````````",
"amamamambvdkdkdkazbs`l`l`l`l`l`l`l`l`l`l`l`l`l`l`l`l`qcramamamas````````",
"amamamambvdkdkdkazbs`l`l`l`l`l`l`l`l`l`l`l`l`l`l`l`l`qcramamamas````````",
"amamamambvdkdkdkazbs`l`l`l`l`l`l`l`l`l`l`l`l`l`l`l`l`qcramamamas````````",
"amamamambvdkdkdkazbs`l`l`l`l`l`l`l`l`l`l`l`l`l`l`l`l`qcramamamas````````",
"amamamambvdkdkdkazbs`l`l`l`l`l`l`l`l`l`l`l`l`l`l`l`l`qcramamamas````````",
"amamamambvdkdkdkazbs`l`l`l`l`l`l`l`l`l`l`l`l`l`l`l`l`qcramamamas````````",
"amamamambvdkdkdkazbs`l`l`l`l`l`l`l`l`l`l`l`l`l`l`l`l`qcramamamas````````",
"amamamambvdkdkdkazbs`l`l`l`l`l`l`l`l`l`l`l`l`l`l`l`l`qcramamamas````````",
"amamamambvdkdkdkazbs`l`l`l`l`l`l`l`l`l`l`l`l`l`l`l`l`qcramamamas````````",
"amamamambvdkdkdkazbs`l`l`l`l`l`l`l`l`l`l`l`l`l`l`l`l`qcramamamas````````",
"amamamambvdkdkdkazbs`l`l`l`l`l`l`l`l`l`l`l`l`l`l`l`l`qcramamamas````````",
"amamamambvdkdkdkazbs`l`l`l`l`l`l`l`l`l`l`l`l`l`l`l`l`qcramamamas````````",
"amamamambvdkdkdkazbs`l`l`l`l`l`l`l`l`l`l`l`l`l`l`l`l`qcramamamas````````",
"amamamambvdkdkdkazbs`l`l`l`l`l`l`l`l`l`l`l`l`l`l`l`l`qcramamamas````````",
"amamamambvdkdkdkaz`l`p`p`p`p`p`p`p`p`p`p`p`p`p`p`p`pdnakamamamas````````",
"amamamambvdkdkay`mcpcpcpcpcpcpcpcpcpcpcpcpcpcpcpcpcpcpacamamamas````````",
"amamamambvdkay`m`famamamamamamamamamamamamamamamamamamamamamamas````````",
"amamamambvay`makamamamamamamamamamamamamamamamamamamamamamamamas````````",
"amamamam`r`m`famamamamamamamamamamamamamamamamamamamamamamamamas````````",
"amamamamcqcodddddddddddddddddddddddddddddddddddddddddddddddddd`u````````",
"amamamambcdecu``````````````````````````````````````````````````````````",
"amamamamambcdecu````````````````````````````````````````````````````````",
"amamamamamambcdecu``````````````````````````````````````````````````````",
"amamamamamamambcdg``````````````````````````````````````````````````````"
};
