/* XPM */
static char *allq[] = {
/* width height ncolors chars_per_pixel */
"36 36 78 2",
/* colors */
"`` c #000000",
"`a c #060609",
"`c c #6D6C99",
"`d c #121525",
"`e c #3E3E39",
"`f c #3A3A35",
"`g c #18180D",
"`h c #8F8E5A",
"`k c #5D7CE2",
"`s c #3257AA",
"`t c #4272DE",
"`u c #0B0B10",
"`v c #493F2F",
"`x c #394B89",
"`z c #4B4B4B",
"a` c #7278C4",
"aa c #10111B",
"ab c #4D85FC",
"ac c #343331",
"af c #F4F48A",
"ag c #38394C",
"ah c #292A30",
"ai c #B7AF62",
"aj c #3C3D3C",
"ak c #3B3B3B",
"al c #333E68",
"am c #313131",
"an c #3C508B",
"ap c #232B4E",
"aq c #DDDD80",
"ar c #514E50",
"as c #191919",
"at c #1C315E",
"av c #F7F78C",
"aw c #99995E",
"ax c #6F5035",
"az c #B6B6B6",
"ba c #030303",
"bc c #2E2E2D",
"bd c #64AFFD",
"bf c #6BA2FA",
"bh c #4C4D72",
"bi c #797952",
"bj c #3A64C0",
"bk c #72B7FA",
"bl c #93935E",
"bm c #393934",
"bn c #A0A16E",
"bo c #B3B3AF",
"br c #F6F68A",
"bt c #343546",
"bu c #5E8CF0",
"bw c #274485",
"by c #1B2037",
"bz c #FFFF8F",
"c` c #EBEC6E",
"ca c #878758",
"cd c #3C3C36",
"cg c #FAFB8D",
"cj c #ABAEFC",
"cm c #9C9C6C",
"cn c #2F2F36",
"co c #1D1D21",
"cs c #7F7E4C",
"cu c #000101",
"cv c #5C5F83",
"cw c #A5C6D1",
"d` c #423727",
"da c #5A9CFE",
"db c #16182A",
"de c #171617",
"df c #9DE4FA",
"dg c #141414",
"dh c #252428",
"di c #373733",
"dk c #BFBFBF",
"dm c #253560",
"dn c #727270",
/* pixels */
"bzbzbzbzbzbzbzbr`hacamamamamamamcdbncgbzbzbzbzbzbzafcaacamamamamamamcdbn",
"bzbzbzbzbzbzcgawcdamamamamamambmawbrbzbzbzbzbzbzbrblbmamamamamamamcdcmbr",
"bzbzbzbzbzavaw`eamamamamamamdiblafcgcgbzbzbzbzbrbl`famamamamamamcdawcgbz",
"bzbzbzbzbrcmcdamamamamcndiag`cazbkcwbfcwcwdkaqblbmamamamamamamcdcmcgbzbz",
"bzbzbzavaw`eamamamamakbh`tbdbddadadadaababab`kanalacamamamamcdawcgbzbzbz",
"bzbzavcmcdamamamdiala`bdbkbdbdbdbdbddadadaabab`tbjbwbtamam`eawcgbzbzbzbz",
"bzavaw`eamamamdianbdbdbkbkbdbkbdbddabddadaababab`tbj`xbtakawcgbzbzbzbzbz",
"brbncdamamambtcvbkbkbkdfbkbkbkbdbdbddadadadaabab`t`t`sbwdnafbzbzbzbzbzbz",
"blcdamamamacanbkbkbkdfdfdfdfbkbkbdbdbddadaababab`t`tbj`sdmbiaqbzbzbzbzcg",
"acamamamambhbdbddfdfdfdfdfdfbkbkbdbddadadadaabab`t`tbj`sbwap`zaqbzbzafaw",
"amamamamagbubkbkdfdfdfdfdfdfbkbkbdbdbddadaabababab`tbj`sbwatbyaxafaf`h`f",
"amamamamcvbdbddfdfdfdfdfdfdfdfbkbdbddadadadaabab`t`tbj`sbwbwap`ubi`hbmam",
"amamambtbubdbkbkdfdfdfdfdfdfbkbkbkbkbddadaababab`t`tbj`s`satat`d`adhamam",
"amamambhbdbkbkbkdfdfdfdfdfbkdfbkdfbkbddadaababab`tbjbj`sbwbwatbybadgamam",
"amamdibjbdbdbkbkdfbkdfdfbkdfdfdfdfbkbkbddaabab`t`t`t`s`sbwbwatat`ubadham",
"amdi`hbkbdbdbdbdbdbkbkbkbkdfdfdfdfdfbkbfdaabab`t`tbj`s`sbwbwatat`d``deam",
"`f`hafbdbdbdbdbdbdbdbkbkdfdfdfdfdfdfdfbfdaab`t`tbjbj`s`sbwbwbwataacu`ubc",
"cmavaqbddabdbdbdbdbdbdbdbkdfdfdfdfdfbkbfabab`t`tbj`s`sbwbwbwatat`dcubabc",
"cgbzafdadadabdbdbdbdbdbdbkbkdfdfdfdfbfbfab`t`tbjbj`s`s`sbwbwatat`dbabacs",
"bzavafdadadadadadadadadabdbkbkbkcjbfbfab`t`t`tbj`s`s`sbwbwbwatat`dcu`aaw",
"bzbzafbuabdadadadadadadadabfbfbfbddaabab`t`tbj`s`s`sbwbwbwbwatapaa``baaw",
"bzbzavbkababdaabdaabdaabdaabdaababab`k`tbjbj`s`s`s`s`sbwbwatatby`ucubaai",
"bzbzbzbo`tababababdaababababababab`t`tbjbjbj`s`s`sbwbwbwbwatatby`acu`uai",
"bzbzavbnbjababababababababab`t`t`t`tbjbjbj`s`s`sbw`sbwbwbwatat`dbaba`gaq",
"bzavcmaj`s`t`t`tab`tab`t`t`t`t`tbjbjbj`s`s`s`s`sbwbwbwbwatat`d`ucucu`vcg",
"brbncdacdm`sbj`t`t`t`t`t`t`t`tbjbjbj`s`s`s`sbw`sbwbwbwatatap`dba``baawbz",
"blcdamamacalbjbjbjbjbjbjbjbj`sbj`s`s`s`s`sbw`sbwbwbwatatat`d`ucucuasaqcg",
"diamamamamcnbw`s`sbj`sbj`s`s`s`s`s`s`sbw`xbwbwbwbwatatatby`ucu``bacsbrai",
"amamamamamamcnbwbwbw`sbw`sbw`sbwbwbwbwbw`sbwbwdmdmatatbyaa`acu``d`aqaw`e",
"amamamamambmcaaqbhatbwbwbwbwbwbwbwbwbwbwbwatbwatatatbyaaba`````gaiawcdam",
"amamamamdiblafavaqaratatbwbwbwbwbwbwbwdmatdmatatby`d`ubacucu`ucaaw`eacam",
"amamamdiblafcgcgafaq`zbyapatatatatatatatatatat`d`d`acucu```gcaawcdamamam",
"amambmblafbzbzbzcgcgaqardg`dbybyapbyapbydb`d`a`abacucubadhaiawcdacamamam",
"amdiblafbzbzbzbzbzcgcgbndh`a`a`a`a`u`a`a`abacucucucu`gcsaqawcdacamamamam",
"bm`hafbzbzbzbzbzbzcgbn`eacbccoaa`abababacucu`a`gd`csaqc`bncdacamamamamam",
"`hafbzbzbzbzbzbzbzai`eacamamambcahdhaxcscs`hawaqafcgcgaicdamamamamamamam"
};
