/* XPM */
static char *allq[] = {
/* width height ncolors chars_per_pixel */
"36 36 33 2",
/* colors */
"`` c #000000",
"`f c #3A3A35",
"`j c #878787",
"`l c #7F7F7F",
"`n c #42434D",
"`p c #797979",
"`q c #777777",
"`r c #757575",
"`w c #848480",
"ac c #343331",
"ak c #3B3B3B",
"am c #313131",
"ar c #514E50",
"as c #191919",
"ay c #B8B8B8",
"az c #B6B6B6",
"ba c #030303",
"bc c #2E2E2D",
"bo c #B3B3AF",
"bq c #8A8A8A",
"bs c #868686",
"cc c #8F8FA2",
"co c #1D1D21",
"cp c #404040",
"cq c #3E3E3E",
"cr c #3C3C3C",
"cu c #000101",
"dd c #181818",
"de c #171617",
"di c #373733",
"dk c #BFBFBF",
"dn c #727270",
"do c #B7B7B7",
/* pixels */
"amamamamamamamamamamamamamamamamamamamamamamamamamamamamamamamamamamamam",
"amamamamamamamamamamamamamamamamamamamamamamamamamamamamamamamamamamamam",
"amamamamamamamamamamamamamamamamamamamamamamamamamamamamamamamamamamamam",
"amamamamamamamamamamamamamamamamamamamamamamamamamamamamamamamamamamamam",
"`p`p`p`p`p`p`p`p`p`p`p`p`p`p`p`p`p`p`p`p`p`p`p`p`p`p`p`p`p`pdncrbcamamam",
"dkdkdkdkdkdkdkdkdkdkdkdkdkdkdkdkdkdkdkdkdkdkdkdkdkdkdkdkdkay`rcoasbcamam",
"dkdkdkdkdkdkdkdkdkdkdkdkdkdkdkdkdkdkdkdkdkdkdkdkdkdkdkdkay`rdiasbaasamam",
"dkdkdkdkdkdkdkdkdkdkdkdkdkdkdkdkdkdkdkdkdkdkdkdkdkdkdkay`rdiamas``baasbc",
"dodododododododododododododododododododododododododoaz`rdiamamas````bade",
"`j`j`j`j`j`j`j`j`j`j`j`j`j`j`j`j`j`j`j`j`j`j`j`j`j`j`lcqamamamas``````cu",
"`l`l`l`l`l`l`l`l`l`l`l`l`l`l`l`l`l`l`l`l`l`l`l`l`l`l`qcramamamas````````",
"`l`l`l`l`l`l`l`l`l`l`l`l`l`l`l`l`l`l`l`l`l`l`l`l`l`l`qcramamamas````````",
"`l`l`l`l`l`l`l`l`l`l`l`l`l`l`l`l`l`l`l`l`l`l`l`l`l`l`qcramamamas````````",
"`l`l`l`l`l`l`l`l`l`l`l`l`l`l`l`l`l`l`l`l`l`l`l`l`l`l`qcramamamas````````",
"`l`l`l`l`l`l`l`l`l`l`l`l`l`l`l`l`l`l`l`l`l`l`l`l`l`l`qcramamamas````````",
"`l`l`l`l`l`l`l`l`l`l`l`l`l`l`l`l`l`l`l`l`l`l`l`l`l`l`qcramamamas````````",
"`l`l`l`l`l`l`l`l`l`l`l`l`l`l`l`l`l`l`l`l`l`l`l`l`l`l`qcramamamas````````",
"`l`l`l`l`l`l`l`l`l`l`l`l`l`l`l`l`l`l`l`l`l`l`l`l`l`l`qcramamamas````````",
"`l`l`l`l`l`l`l`l`l`l`l`l`l`l`l`l`l`l`l`l`l`l`l`l`l`l`qcramamamas````````",
"`l`l`l`l`l`l`l`l`l`l`l`l`l`l`l`l`l`l`l`l`l`l`l`l`l`l`qcramamamas````````",
"`l`l`l`l`l`l`l`l`l`l`l`l`l`l`l`l`l`l`l`l`l`l`l`l`l`l`qcramamamas````````",
"`l`l`l`l`l`l`l`l`l`l`l`l`l`l`l`l`l`l`l`l`l`l`l`l`l`l`qcramamamas````````",
"`l`l`l`l`l`l`l`l`l`l`l`l`l`l`l`l`l`l`l`l`l`l`l`l`l`l`qcramamamas````````",
"`l`l`l`l`l`l`l`l`l`l`l`l`l`l`l`l`l`l`l`l`l`l`l`l`l`l`qcramamamas````````",
"`l`l`l`l`l`l`l`l`l`l`l`l`l`l`l`l`l`l`l`l`l`l`l`l`l`l`qcramamamas````````",
"`l`l`l`l`l`l`l`l`l`l`l`l`l`l`l`l`l`l`l`l`l`l`l`l`l`l`qcramamamas````````",
"`r`r`r`r`r`r`r`r`q`l`l`l`l`l`l`l`l`l`l`l`l`l`l`l`l`l`qcramamamas````````",
"akakakakakakakakdn`w`l`l`l`l`l`l`l`l`l`l`l`l`l`l`l`l`qcramamamas````````",
"amamamamamamacarcc`j`l`l`l`l`l`l`l`l`l`l`l`l`l`l`l`l`qcramamamas````````",
"amamamamam`farbqazbs`l`l`l`l`l`l`l`l`l`l`l`l`l`l`l`l`qcramamamas````````",
"amamamamacarbsboazbs`l`l`l`l`l`l`l`l`l`l`l`l`l`l`l`l`qcramamamas````````",
"ddddddascp`lbqayazbs`l`l`l`l`l`l`l`l`l`l`l`l`l`l`l`l`qcramamamas````````",
"````````cp`wbodkazbs`l`l`l`l`l`l`l`l`l`l`l`l`l`l`l`l`qcramamamas````````",
"``````cucpbqaydkazbs`l`l`l`l`l`l`l`l`l`l`l`l`l`l`l`l`qcramamamas````````",
"`````````nbodkdkazbs`l`l`l`l`l`l`l`l`l`l`l`l`l`l`l`l`qcramamamas````````",
"````````araydkdkazbs`l`l`l`l`l`l`l`l`l`l`l`l`l`l`l`l`qcramamamas````````"
};
