/* XPM */
static char *allq[] = {
/* width height ncolors chars_per_pixel */
"36 36 12 2",
/* colors */
"`` c #000000",
"`l c #7F7F7F",
"`q c #777777",
"ac c #343331",
"am c #313131",
"as c #191919",
"az c #B6B6B6",
"bs c #868686",
"bv c #7A7A7A",
"cr c #3C3C3C",
"dk c #BFBFBF",
"do c #B7B7B7",
/* pixels */
"amamamambvdkdkdkazbs`l`l`l`l`l`l`l`l`l`l`l`l`l`l`l`l`qcramamamas````````",
"amamamambvdkdkdkazbs`l`l`l`l`l`l`l`l`l`l`l`l`l`l`l`l`qcramamamas````````",
"amamamambvdkdkdkazbs`l`l`l`l`l`l`l`l`l`l`l`l`l`l`l`l`qcramamamas````````",
"amamamambvdkdkdkazbs`l`l`l`l`l`l`l`l`l`l`l`l`l`l`l`l`qcramamamas````````",
"amamamambvdkdkdkazbs`l`l`l`l`l`l`l`l`l`l`l`l`l`l`l`l`qcramamamas````````",
"amamamambvdkdkdkazbs`l`l`l`l`l`l`l`l`l`l`l`l`l`l`l`l`qcramamamas````````",
"amamamambvdkdkdkazbs`l`l`l`l`l`l`l`l`l`l`l`l`l`l`l`l`qcramamamas````````",
"amamamambvdkdkdkazbs`l`l`l`l`l`l`l`l`l`l`l`l`l`l`l`l`qcramamamas````````",
"amamamambvdkdkdkazbs`l`l`l`l`l`l`l`l`l`l`l`l`l`l`l`l`qcramamamas````````",
"amamamambvdkdkdkazbs`l`l`l`l`l`l`l`l`l`l`l`l`l`l`l`l`qcramamamas````````",
"amamamambvdkdkdkazbs`l`l`l`l`l`l`l`l`l`l`l`l`l`l`l`l`qcramamamas````````",
"amamamambvdkdkdkazbs`l`l`l`l`l`l`l`l`l`l`l`l`l`l`l`l`qcramamamas````````",
"amamamambvdkdkdkazbs`l`l`l`l`l`l`l`l`l`l`l`l`l`l`l`l`qcramamamas````````",
"amamamambvdkdkdkazbs`l`l`l`l`l`l`l`l`l`l`l`l`l`l`l`l`qcramamamas````````",
"amamamambvdkdkdkazbs`l`l`l`l`l`l`l`l`l`l`l`l`l`l`l`l`qcramamamas````````",
"amamamacbvdkdkdkazbs`l`l`l`l`l`l`l`l`l`l`l`l`l`l`l`l`qcramamamas````````",
"amamamambvdkdkdkdobs`l`l`l`l`l`l`l`l`l`l`l`l`l`l`l`l`qcramamamas````````",
"amamamambvdkdkdkazbs`l`l`l`l`l`l`l`l`l`l`l`l`l`l`l`l`qcramamamas````````",
"amamamambvdkdkdkdobs`l`l`l`l`l`l`l`l`l`l`l`l`l`l`l`l`qcramamamas````````",
"amamamambvdkdkdkazbs`l`l`l`l`l`l`l`l`l`l`l`l`l`l`l`l`qcramamamas````````",
"amamamambvdkdkdkazbs`l`l`l`l`l`l`l`l`l`l`l`l`l`l`l`l`qcramamamas````````",
"amamamambvdkdkdkazbs`l`l`l`l`l`l`l`l`l`l`l`l`l`l`l`l`qcramamamas````````",
"amamamambvdkdkdkazbs`l`l`l`l`l`l`l`l`l`l`l`l`l`l`l`l`qcramamamas````````",
"amamamambvdkdkdkazbs`l`l`l`l`l`l`l`l`l`l`l`l`l`l`l`l`qcramamamas````````",
"amamamambvdkdkdkazbs`l`l`l`l`l`l`l`l`l`l`l`l`l`l`l`l`qcramamamas````````",
"amamamambvdkdkdkazbs`l`l`l`l`l`l`l`l`l`l`l`l`l`l`l`l`qcramamamas````````",
"amamamambvdkdkdkazbs`l`l`l`l`l`l`l`l`l`l`l`l`l`l`l`l`qcramamamas````````",
"amamamambvdkdkdkazbs`l`l`l`l`l`l`l`l`l`l`l`l`l`l`l`l`qcramamamas````````",
"amamamambvdkdkdkazbs`l`l`l`l`l`l`l`l`l`l`l`l`l`l`l`l`qcramamamas````````",
"amamamambvdkdkdkazbs`l`l`l`l`l`l`l`l`l`l`l`l`l`l`l`l`qcramamamas````````",
"amamamambvdkdkdkazbs`l`l`l`l`l`l`l`l`l`l`l`l`l`l`l`l`qcramamamas````````",
"amamamambvdkdkdkazbs`l`l`l`l`l`l`l`l`l`l`l`l`l`l`l`l`qcramamamas````````",
"amamamambvdkdkdkazbs`l`l`l`l`l`l`l`l`l`l`l`l`l`l`l`l`qcramamamas````````",
"amamamambvdkdkdkazbs`l`l`l`l`l`l`l`l`l`l`l`l`l`l`l`l`qcramamamas````````",
"amamamambvdkdkdkazbs`l`l`l`l`l`l`l`l`l`l`l`l`l`l`l`l`qcramamamas````````",
"amamamambvdkdkdkazbs`l`l`l`l`l`l`l`l`l`l`l`l`l`l`l`l`qcramamamas````````"
};
