/* XPM */
static char *allq[] = {
/* width height ncolors chars_per_pixel */
"36 36 32 2",
/* colors */
"`` c #000000",
"`f c #3A3A35",
"`j c #878787",
"`l c #7F7F7F",
"`m c #7D7D7D",
"`o c #ABA989",
"`p c #797979",
"`r c #757575",
"ac c #343331",
"ak c #3B3B3B",
"am c #313131",
"ay c #B8B8B8",
"az c #B6B6B6",
"bc c #2E2E2D",
"bq c #8A8A8A",
"bs c #868686",
"bv c #7A7A7A",
"bz c #FFFF8F",
"cb c #BDBCB8",
"cc c #8F8FA2",
"cj c #ABAEFC",
"co c #1D1D21",
"cp c #404040",
"cq c #3E3E3E",
"cu c #000101",
"dd c #181818",
"de c #171617",
"df c #9DE4FA",
"dg c #141414",
"dk c #BFBFBF",
"dn c #727270",
"do c #B7B7B7",
/* pixels */
"amamamamamamamamamamamamamamamamamamamamamamamamamamamamamamamamamamamam",
"amamamamamamamamamamamamamamamamamamamamamamamamamamamamamamamamamamamam",
"amamamamamamamamamamamamamamamamamamamamamamamamamamamamamamamamamamamam",
"amamamamacamamamamamamamamamamamamamamamamamamamamamamamamamamamamamamam",
"amamamamdnbs`p`p`p`p`p`p`p`p`p`p`p`p`p`p`p`p`p`p`p`p`p`p`p`p`p`p`p`p`p`p",
"amamamacccdkdkdkdkdkdkdkdkdkdkdkdkdkdkdkdkdkdkdkdkdkdkdkdkdkdkdkdkdkdkdk",
"amamamambvdkdfdkdkdkdkdkdkdkdkdkdkdkdkdkdkdkdkdkdkdkdkdkdkdkdkdkdkdkdkdk",
"amamamam`jdkbzdkdkdkdkdkdkdkdkdkdkdkdkdkdkdkdkdkdkdkdkdkdkdkdkdkdkdkdkdk",
"amamamambvdkcjdkdfdkcbcbazdododododododododododododododododododododododo",
"amamamam`ldkdkdkdk`obq`j`j`j`j`j`j`j`j`j`j`j`j`j`j`j`j`j`j`j`j`j`j`j`j`j",
"amamamambvdkdkdkdkbq`l`l`l`l`l`l`l`l`l`l`l`l`l`l`l`l`l`l`l`l`l`l`l`l`l`l",
"amamamac`ldkdkdkcb`j`l`l`l`l`l`l`l`l`l`l`l`l`l`l`l`l`l`l`l`l`l`l`l`l`l`l",
"amamamambvdkdkdkcbbs`l`l`l`l`l`l`l`l`l`l`l`l`l`l`l`l`l`l`l`l`l`l`l`l`l`l",
"amamamam`mdkdkdkazbs`l`l`l`l`l`l`l`l`l`l`l`l`l`l`l`l`l`l`l`l`l`l`l`l`l`l",
"amamamambvdkdkdkaybs`l`l`l`l`l`l`l`l`l`l`l`l`l`l`l`l`l`l`l`l`l`l`l`l`l`l",
"amamamacbvdkdkdkdobs`l`l`l`l`l`l`l`l`l`l`l`l`l`l`l`l`l`l`l`l`l`l`l`l`l`l",
"amamamambvdkdkdkdobs`l`l`l`l`l`l`l`l`l`l`l`l`l`l`l`l`l`l`l`l`l`l`l`l`l`l",
"amamamambvdkdkdkazbs`l`l`l`l`l`l`l`l`l`l`l`l`l`l`l`l`l`l`l`l`l`l`l`l`l`l",
"amamamambvdkdkdkdobs`l`l`l`l`l`l`l`l`l`l`l`l`l`l`l`l`l`l`l`l`l`l`l`l`l`l",
"amamamambvdkdkdkazbs`l`l`l`l`l`l`l`l`l`l`l`l`l`l`l`l`l`l`l`l`l`l`l`l`l`l",
"amamamambvdkdkdkazbs`l`l`l`l`l`l`l`l`l`l`l`l`l`l`l`l`l`l`l`l`l`l`l`l`l`l",
"amamamambvdkdkdkazbs`l`l`l`l`l`l`l`l`l`l`l`l`l`l`l`l`l`l`l`l`l`l`l`l`l`l",
"amamamambvdkdkdkazbs`l`l`l`l`l`l`l`l`l`l`l`l`l`l`l`l`l`l`l`l`l`l`l`l`l`l",
"amamamambvdkdkdkazbs`l`l`l`l`l`l`l`l`l`l`l`l`l`l`l`l`l`l`l`l`l`l`l`l`l`l",
"amamamambvdkdkdkazbs`l`l`l`l`l`l`l`l`l`l`l`l`l`l`l`l`l`l`l`l`l`l`l`l`l`l",
"amamamambvdkdkdkazbs`l`l`l`l`l`l`l`l`l`l`l`l`l`l`l`l`l`l`l`l`l`l`l`l`l`l",
"amamamambvdkdkdkaz`l`p`p`p`p`p`p`p`p`p`p`p`p`p`p`p`p`p`p`p`p`p`p`p`p`p`p",
"amamamambvdkdkay`mcpcpcpcpcpcpcpcpcpcpcpcpcpcpcpcpcpcpcpcpcpcpcpcpcpcpcp",
"amamamambvdkay`m`famamamamamamamamamamamamamamamamamamamamamamamamamamam",
"amamamambvay`makamamamamamamamamamamamamamamamamamamamamamamamamamamamam",
"amamamam`r`m`famamamamamamamamamamamamamamamamamamamamamamamamamamamamam",
"amamamamcqcodddddddddddddddddddddddddddddddddddddddddddddddddddddddddddd",
"amamamambcdecu``````````````````````````````````````````````````````````",
"amamamamambcdecu````````````````````````````````````````````````````````",
"amamamamamambcdecu``````````````````````````````````````````````````````",
"amamamamamamambcdg``````````````````````````````````````````````````````"
};
