/* XPM */
static char *icons-40-128[] = {
/* width height ncolors chars_per_pixel */
"20 20 15 2",
/* colors */
"`f c #7F4D34",
"`g c #7D4B32",
"`x c #CC9275",
"bc c #7C4B32",
"bf c #AE7959",
"bg c #82533B",
"bp c #926740",
"bq c #804E35",
"br c #7E4C33",
"cf c #573423",
"cp c #B77F63",
"cq c #5E3926",
"cz c #643C28",
"dh c #7B4A31",
"dn c #BE8A6F",
/* pixels */
"`x`x`xbc`g`g`g`g`g`g`g`g`g`g`g`g`gczcfcf",
"`x`x`xbc`g`g`g`g`g`g`g`g`g`g`g`g`gczcfcf",
"dndndnbc`g`g`g`g`g`g`g`g`g`g`g`g`gczcfcf",
"brbrbr`g`g`g`g`g`g`g`g`g`g`g`g`g`gczcfcf",
"`g`g`g`g`g`g`g`g`g`g`g`g`g`g`g`g`gczcfcf",
"`g`g`g`g`g`g`g`g`g`g`g`g`g`g`g`g`gczcfcf",
"`g`g`g`g`g`g`g`g`g`g`g`g`g`g`g`g`gczcfcf",
"`g`g`g`g`g`g`g`g`g`g`g`g`g`g`g`g`gczcfcf",
"`g`g`g`g`g`g`g`g`g`g`g`g`g`g`g`g`gczcfcf",
"`g`g`g`g`g`g`g`g`g`g`g`g`g`g`g`g`gczcfcf",
"`g`g`g`g`g`g`g`g`g`g`g`g`g`g`g`g`gczcfcf",
"`g`g`g`g`g`g`g`g`g`g`g`g`g`g`g`g`gczcfcf",
"`g`g`g`g`g`g`g`g`g`g`g`g`g`g`g`g`gczcfcf",
"`g`g`g`g`g`g`g`g`g`g`g`g`g`g`g`g`gczcfcf",
"`g`g`g`g`g`g`g`g`g`g`g`g`g`g`g`g`gczcfcf",
"`g`g`g`g`g`g`g`g`g`g`g`g`g`g`g`g`gczcfcf",
"bcbcbcbcbcbcbcbcbcbcbcbcbcbcbcbcbcczcfcf",
"cfcfcfcfcfcfcfcfcfcfcfcfcfcfcfcfcfcfcfcf",
"cfcfcfcfcfcfcfcfcfcfcfcfcfcfcfcfcfcfcfcf",
"cfcfcfcfcfcfcfcfcfcfcfcfcfcfcfcfcfcfcfcf",
};
