/* XPM */
static char *icons-40-128[] = {
/* width height ncolors chars_per_pixel */
"20 20 43 2",
/* colors */
"`` c #000000",
"`a c #4C486F",
"`d c #1A172A",
"`h c #07060A",
"`k c #8A86A5",
"`l c #70709C",
"`m c #8D6EE7",
"`n c #3D3D56",
"`o c #585856",
"`p c #585681",
"`r c #525250",
"`w c #474766",
"ab c #B0A9B9",
"ag c #65658D",
"ah c #595956",
"aj c #6B6B96",
"ak c #393851",
"ap c #5C5C69",
"aq c #302E20",
"as c #0F0D1A",
"ax c #F3E6DF",
"ay c #000001",
"b` c #271D4F",
"ba c #423F45",
"bd c #9999C2",
"be c #373644",
"bh c #454562",
"bi c #7B7BA4",
"bk c #211845",
"bm c #58585D",
"bo c #565551",
"bt c #5F5F88",
"bz c #42425E",
"ca c #4E4E6D",
"ck c #27262F",
"cs c #3F3F5A",
"ct c #545454",
"d` c #8080B7",
"db c #514B4A",
"dd c #020103",
"de c #2F2F39",
"dl c #555554",
"dm c #504E45",
/* pixels */
"ctctctctctctctapag`lajapdlctctctctctctct",
"ctctctctctajbdabbdbdbdd``lbtctctctctctct",
"ctctctbobdabbdabbdbdd`bi`lbtca`rctctctct",
"ctctbobdbdabbdbd`mbdd`d`ajag`pbhdbctctct",
"ctctd`axabbdbd`m`md`d``lajbt`p`wbebectct",
"ctctababbdbdbdbdd`d``l`lajbtca`wak`dbact",
"ctbibdbdbd`md`d`d``l`lajag`pcabzakdeddct",
"dlbdbdbdbdd`d`d`d``lajagbt`p`a`nakbe`hba",
"`od`bdd`d`d``l`l`lajagbt`pcabhakakakasas",
"dld`d``l`l`l`lajajbtbt`pcabh`nakak`n`ddd",
"ctaj`l`lajajajbtbt`p`pca`wcs`n`ncsbzas``",
"ctcabtbtbtbtbt`p`p`pcabh`n`ncsbzbh`wdddd",
"ctct`w`p`p`pcacaca`wbz`n`ncsbzbh`wcs```h",
"ctdlcs`w`w`a`w`wbz`nak`ncsbz`w`wcaas``aq",
"ctctctdeak`n`nakakak`ncsbh`w`wcade`````r",
"ctctctctbkdeb`beakakcsbz`w`wcabe````dedl",
"ctctctctct`db`akakcsbzbh`w`w`day``asctct",
"ctctctctct`rasasckakakdeas``````ckctctct",
"ctctctctctct`rba`h````````ddasdmdlctctct",
"ctctctctctctctctctct`rdmdmdlbodlctctctct",
};
