/* XPM */
static char *icons-40-128[] = {
/* width height ncolors chars_per_pixel */
"20 20 55 2",
/* colors */
"`b c #E6E51B",
"`c c #514A35",
"`e c #D9D98C",
"`j c #BE8A4A",
"`o c #585856",
"`r c #525250",
"`t c #BC8C4B",
"`x c #CC9275",
"`y c #8D6737",
"`z c #555042",
"a` c #B68352",
"aa c #9A723D",
"af c #5D5543",
"ah c #595956",
"al c #CAC829",
"an c #B98747",
"aq c #302E20",
"ar c #7D603A",
"at c #DDDD8E",
"au c #514A33",
"av c #939363",
"az c #5A5A56",
"bj c #979770",
"bl c #DAD741",
"bm c #58585D",
"bn c #DADA8D",
"bo c #565551",
"bp c #926740",
"bq c #804E35",
"bs c #A2A142",
"bu c #9E9E73",
"bw c #514B38",
"bx c #5F4A28",
"cb c #BA998B",
"cc c #B18340",
"cd c #715336",
"cf c #573423",
"ch c #DBDB8D",
"cj c #C4A03B",
"cl c #585855",
"cn c #D7D78C",
"co c #AB7F40",
"ct c #545454",
"cx c #DBDA8C",
"df c #D8D88C",
"dg c #D6D68A",
"di c #BBB720",
"dj c #9C9C72",
"dk c #8F872D",
"dl c #555554",
"dm c #504E45",
"do c #605D4E",
"dp c #DFDF8F",
"dq c #766B3F",
"dr c #98793C",
/* pixels */
"dlcndpdpdpdpazctctazdobndpdpdpdfahctctct",
"ctctcndpdpdpchdocjcjccdrbsdpdpdpdfahctct",
"ctctdldfdpdpdpcjaqdrcocfaq`edpdpdpcnahct",
"ctctct`odfdpdp`xaa`ydrcdardobndpdpdpcnah",
"clctctct`o`edpcjcjcjccdk`yboazbndpdpdpdf",
"chazctctct`rdqcj`b`baldididq`razbndpdpdp",
"dpatazctctdmaubq`bdidididiauauctazbndpdp",
"dpdpchazct`caucdan`bdidianauau`zctazbndp",
"dpdpdpbnazauaucdandidiccanauaubwctctazbn",
"atdpdpdpatauaucd`j`jcc`j`jauaubwctctctaz",
"`ocndpdpdpauauaran`j`j`j`jauaudqahctctct",
"ctdlcndpcxdqauaacoccccccccarauavcnahctct",
"ctctazchdp`eauaaaabpaaaaaadr`cdgdpcnahct",
"ctctctazchdp`e`y`y`y`y`y`y`ybsdpdpdpcnah",
"dlctctctazchdpcxcjaa`y`y`ydqbmbndpdpdpdf",
"dg`octctctazchatdi`edgahdqdkctazbndpdpdp",
"dpdg`octctdlazbldichdpdgafdiboctazbndpdp",
"dpdpdg`octbodkdidialdpatbldididqdlazbndp",
"dpdpdpdg`odl`rdmbmcncxdgchdgdq`rctctazbn",
"dpdpdpdpdgdlctdldldodpdpdpdpdgdlctctctaz"

};
