/* XPM */
static char *icons-40-128[] = {
/* width height ncolors chars_per_pixel */
"20 20 72 2",
/* colors */
"`` c #000000",
"`a c #4C486F",
"`d c #1A172A",
"`h c #07060A",
"`i c #2F2263",
"`k c #8A86A5",
"`m c #8D6EE7",
"`o c #585856",
"`p c #585681",
"`q c #322469",
"`r c #525250",
"`s c #3E2D82",
"`v c #35266F",
"`w c #474766",
"`z c #555042",
"ac c #43318D",
"ad c #1A1333",
"af c #5D5543",
"ah c #595956",
"ai c #523CAC",
"ak c #393851",
"am c #8460FE",
"ao c #6147CB",
"ap c #5C5C69",
"aq c #302E20",
"as c #0F0D1A",
"at c #DDDD8E",
"au c #514A33",
"av c #939363",
"aw c #48398A",
"ay c #000001",
"az c #5A5A56",
"b` c #271D4F",
"ba c #423F45",
"bb c #251B4D",
"be c #373644",
"bh c #454562",
"bj c #979770",
"bk c #211845",
"bm c #58585D",
"bn c #DADA8D",
"bo c #565551",
"bu c #9E9E73",
"bv c #584B6A",
"bz c #42425E",
"ca c #4E4E6D",
"cb c #BA998B",
"ce c #2C205C",
"cg c #947376",
"ch c #DBDB8D",
"ci c #16102F",
"ck c #27262F",
"cl c #585855",
"cm c #CFBAB6",
"cn c #D7D78C",
"cr c #8E8E97",
"ct c #545454",
"cv c #7253EC",
"cw c #372873",
"cy c #37305F",
"d` c #8080B7",
"db c #514B4A",
"dc c #3A2A79",
"dd c #020103",
"de c #2F2F39",
"df c #D8D88C",
"dg c #D6D68A",
"dj c #9C9C72",
"dl c #555554",
"dm c #504E45",
"dp c #DFDF8F",
"dq c #766B3F",
/* pixels */
"dlcndpdpdpatazdlbv`a`wcbatdpdpdfahctctct",
"ctdlcndpdpcmaoaoaoaiacdccy`wdgdpdfahctct",
"ctctcldgd`amamamcvaoaiac`qb`bkbudpcnahct",
"ctctctaiam`m`mamamaoaiaccwcebkadbudpcnah",
"clct`pam`m`m`mamamaoaiaccw`ibbbkasdjdpdf",
"chbmaoam`m`m`mamcvaoaiaccwcebbbkci`hdgdp",
"dpcbaoamamamamcvaoaiai`s`vcebbbkcias`hdp",
"dp`paiaocvcvcvaoaoaiacdc`vceb`bkadciddbu",
"dgawaiaiaoaoaoaiacac`sdc`q`ib`bkbkad`haq",
"dgcy`sacacacacacac`sdccw`q`iceb`bbbk`h`h",
"ctbz`qcwdc`s`sdcdccwcw`v`v`q`q`icebb`h``",
"ctakb`ce`i`q`q`q`q`q`v`v`vcwdc`v`ibbdddd",
"ct`rbkbkbbb`b`cece`i`q`vdc`s`sdc`ibk```h",
"ctctckadbkbkbkbbb`ce`icw`s`s`sdcce`h``aq",
"dlctctciciadadbkbkb``icw`s`s`s`vadayddcn",
"dg`octdbasasciadbkb``i`vcwcw`qaday``dqdp",
"dpdg`oct`rasasciadbkb`ceceb`asay``aqdpdp",
"dpdpdg`oct`r`hasciadadci`hay`````dctchdp",
"dpdpdpdg`octdlde`hayay``````asdmdlctazbn",
"dpdpdpdpdgdlctdlbobobubudgchdgdlctctctaz"

};
