/* XPM */
static char *icons-40-128[] = {
/* width height ncolors chars_per_pixel */
"20 20 17 2",
/* colors */
"`f c #7F4D34",
"`g c #7D4B32",
"`x c #CC9275",
"ae c #67402C",
"ax c #F3E6DF",
"bq c #804E35",
"br c #7E4C33",
"c` c #B27A5F",
"cf c #573423",
"cm c #CFBAB6",
"cn c #D7D78C",
"cp c #B77F63",
"cq c #5E3926",
"cz c #643C28",
"dg c #D6D68A",
"dh c #7B4A31",
"dn c #BE8A6F",
/* pixels */
"cmcm`x`x`x`x`x`x`x`x`x`x`x`x`x`x`x`x`x`x",
"`xcmcm`x`x`x`x`x`x`x`x`x`x`x`x`x`x`x`x`x",
"`x`xcndncpcpcpcpcpcpcpcpcpcpcpcpcpcpcpcp",
"`x`x`xbq`g`g`g`g`g`g`g`g`g`g`g`g`g`g`g`g",
"`x`x`xbr`g`g`g`g`g`g`g`g`g`g`g`g`g`g`g`g",
"`x`x`xbr`g`g`g`g`g`g`g`g`g`g`g`g`g`g`g`g",
"`x`x`xbr`g`g`g`g`g`g`g`g`g`g`g`g`g`g`g`g",
"`x`x`xbr`g`g`g`g`g`g`g`g`g`g`g`g`g`g`g`g",
"`x`x`xbr`g`g`g`g`g`g`g`g`g`g`g`g`g`g`g`g",
"`x`x`xbr`g`g`g`g`g`g`g`g`g`g`g`g`g`g`g`g",
"`x`x`xbr`g`g`g`g`g`g`g`g`g`g`g`g`g`g`g`g",
"`x`x`xbr`g`g`g`g`g`g`g`g`g`g`g`g`g`g`g`g",
"`x`x`xbr`g`g`g`g`g`g`g`g`g`g`g`g`g`g`g`g",
"`x`x`xbr`g`g`g`g`g`g`g`g`g`g`g`g`g`g`g`g",
"`x`x`xbr`g`g`g`g`g`g`g`g`g`g`g`g`g`g`g`g",
"`x`x`xbr`g`g`g`g`g`g`g`g`g`g`g`g`g`g`g`g",
"`x`x`xbr`g`g`g`g`g`g`g`g`g`g`g`g`g`g`g`g",
"`x`x`xbr`g`g`g`g`g`g`g`g`g`g`g`g`gczcfcf",
"`x`x`xbr`g`g`g`g`g`g`g`g`g`g`g`g`gczcfcf",
"`x`x`xbr`g`g`g`g`g`g`g`g`g`g`g`g`gczcfcf",
};
