/* XPM */
static char *icons-40-128[] = {
/* width height ncolors chars_per_pixel */
"20 20 14 2",
/* colors */
"`g c #7D4B32",
"`u c #865741",
"`x c #CC9275",
"ae c #67402C",
"bc c #7C4B32",
"bf c #AE7959",
"bp c #926740",
"bq c #804E35",
"cf c #573423",
"cp c #B77F63",
"cq c #5E3926",
"cz c #643C28",
"da c #C78E72",
"dh c #7B4A31",
/* pixels */
"`x`x`x`x`x`x`x`x`x`x`x`x`x`x`x`x`x`x`xbp",
"`x`x`x`x`x`x`x`x`x`x`x`x`x`x`x`x`x`xbpcf",
"cpcpcpcpcpcpcpcpcpcpcpcpcpcpcpcpcpbpcfcf",
"`g`g`g`g`g`g`g`g`g`g`g`g`g`g`g`g`gczcfcf",
"`g`g`g`g`g`g`g`g`g`g`g`g`g`g`g`g`gczcfcf",
"`g`g`g`g`g`g`g`g`g`g`g`g`g`g`g`g`gczcfcf",
"`g`g`g`g`g`g`g`g`g`g`g`g`g`g`g`g`gczcfcf",
"`g`g`g`g`g`g`g`g`g`g`g`g`g`g`g`g`gczcfcf",
"`g`g`g`g`g`g`g`g`g`g`g`g`g`g`g`g`gczcfcf",
"`g`g`g`g`g`g`g`g`g`g`g`g`g`g`g`g`gczcfcf",
"`g`g`g`g`g`g`g`g`g`g`g`g`g`g`g`g`gczcfcf",
"`g`g`g`g`g`g`g`g`g`g`g`g`g`g`g`g`gczcfcf",
"`g`g`g`g`g`g`g`g`g`g`g`g`g`g`g`g`gczcfcf",
"`g`g`g`g`g`g`g`g`g`g`g`g`g`g`g`g`gczcfcf",
"`g`g`g`g`g`g`g`g`g`g`g`g`g`g`g`g`gczcfcf",
"`g`g`g`g`g`g`g`g`g`g`g`g`g`g`g`g`gczcfcf",
"`g`g`g`g`g`g`g`g`g`g`g`g`g`g`g`g`gczcfcf",
"cfcfbp`g`g`g`g`g`g`g`g`g`g`g`g`g`gczcfcf",
"cfbpda`g`g`g`g`g`g`g`g`g`g`g`g`g`gczcfcf",
"bp`xda`g`g`g`g`g`g`g`g`g`g`g`g`g`gczcfcf"

};
